SplineFontDB: 3.2
FontName: F5000
FullName: F5000
FamilyName: F5000
Weight: Regular
Copyright: F5000 remake by NR74W (2021).\nOriginal font design by The Designers Republic (1996).
UComments: "2021-3-28: Created with FontForge (http://fontforge.org)"
FontLog: "The +ACIA-F5000+ACIA font from WipEout 2097 / XL, released for the PlayStation in 1996; and WipEout 64 for the Nintendo 64 in 1998.+AAoA-Made by The Designers Republic.+AAoACgAA-Version 2.0.+AAoA-Homepage: https://github.com/NR74W/WipEout-Fonts+AAoACgAA-A font that was used extensively in WipEout 2097 / 64.+AAoA-Nothing is known about this font, not even its name. It is unknown if it was created for WipEout, but it is very likely.+AAoA-Due to the lack of information, I decided to name it F5000.+AAoACgAA-There are 2 versions of this font:+AAoA-- For the games and the F5000 Anti-Gravity Racing League logo.+AAoA-- For the covers of WipEout 2097, its soundtrack and the Atom Bomb single.+AAoACgAA-They used a different spacing size (game: 1:1 width; cover: approximately 0.5:1 width), the slash is also different.+AAoA-The known alternative characters used on the covers can be found in the Private Use Area; the small space character in the PUA can be used after each character to replicate the spacing size used in the games and the F5000 logo.+AAoA-The characters: Asterisk, Semicolon, Equals Sign, Vertical Line, Inverted Exclamation-Question Marks, Ligatures AE-OE, Sharp S; are not official.+AAoACgAA--- NR74W (2021)"
Version: 2.00
ItalicAngle: 0
UnderlinePosition: -100
UnderlineWidth: 50
Ascent: 800
Descent: 200
InvalidEm: 0
LayerCount: 2
Layer: 0 0 "Arri+AOgA-re" 1
Layer: 1 0 "Avant" 0
XUID: [1021 17 266829378 18786]
StyleMap: 0x0040
FSType: 0
OS2Version: 0
OS2_WeightWidthSlopeOnly: 0
OS2_UseTypoMetrics: 1
CreationTime: 1616944234
ModificationTime: 1633881374
PfmFamily: 81
TTFWeight: 400
TTFWidth: 5
LineGap: 94
VLineGap: 0
OS2TypoAscent: 0
OS2TypoAOffset: 1
OS2TypoDescent: 0
OS2TypoDOffset: 1
OS2TypoLinegap: 94

StartChar: A
Encoding: 65 65 0
Width: 780
VWidth: 1024
Flags: W
HStem: 0 21G<0 120 600 720> 300 120<120 600> 600 120<120 600>
VStem: 0 120<0 300 420 600> 600 120<0 300 420 600>
LayerCount: 2
Fore
SplineSet
120 420 m 1
 600 420 l 1
 600 600 l 1
 120 600 l 1
 120 420 l 1
0 0 m 1
 0 720 l 1
 720 720 l 1
 720 0 l 1
 600 0 l 1
 600 300 l 1
 120 300 l 1
 120 0 l 1
 0 0 l 1
EndSplineSet
EndChar

StartChar: O
Encoding: 79 79 1
Width: 780
VWidth: 1024
Flags: W
HStem: 0 120<120 600> 600 120<120 600>
VStem: 0 120<120 600> 600 120<120 600>
LayerCount: 2
Fore
SplineSet
120 120 m 1
 600 120 l 1
 600 600 l 1
 120 600 l 1
 120 120 l 1
0 0 m 1
 0 720 l 1
 720 720 l 1
 720 0 l 1
 0 0 l 1
EndSplineSet
EndChar

StartChar: zero
Encoding: 48 48 2
Width: 780
VWidth: 1024
Flags: W
HStem: 0 120<120 600> 600 120<120 600>
VStem: 0 120<120 600> 600 120<120 600>
LayerCount: 2
Fore
SplineSet
120 120 m 1
 600 120 l 1
 600 600 l 1
 120 600 l 1
 120 120 l 1
0 0 m 1
 0 720 l 1
 720 720 l 1
 720 0 l 1
 0 0 l 1
EndSplineSet
EndChar

StartChar: B
Encoding: 66 66 3
Width: 780
VWidth: 1024
Flags: W
HStem: 0 120<120 600> 300 120<120 600> 600 120<120 600>
VStem: 0 120<120 300 420 600> 600 120<120 300 420 600>
CounterMasks: 1 e0
LayerCount: 2
Fore
SplineSet
120 420 m 1
 600 420 l 1
 600 600 l 1
 120 600 l 1
 120 420 l 1
120 120 m 1
 600 120 l 1
 600 300 l 1
 120 300 l 1
 120 120 l 1
0 0 m 1
 0 720 l 1
 720 720 l 1
 720 0 l 1
 0 0 l 1
EndSplineSet
EndChar

StartChar: C
Encoding: 67 67 4
Width: 780
VWidth: 1024
Flags: W
HStem: 0 120<120 720> 600 120<120 720>
VStem: 0 120<120 600>
LayerCount: 2
Fore
SplineSet
0 0 m 1
 0 720 l 1
 720 720 l 1
 720 600 l 1
 120 600 l 1
 120 120 l 1
 720 120 l 1
 720 0 l 1
 0 0 l 1
EndSplineSet
EndChar

StartChar: E
Encoding: 69 69 5
Width: 780
VWidth: 1024
Flags: W
HStem: 0 120<120 720> 300 120<120 720> 600 120<120 720>
VStem: 0 120<120 300 420 600>
CounterMasks: 1 e0
LayerCount: 2
Fore
SplineSet
0 0 m 1
 0 720 l 1
 720 720 l 1
 720 600 l 1
 120 600 l 1
 120 420 l 1
 720 420 l 1
 720 300 l 1
 120 300 l 1
 120 120 l 1
 720 120 l 1
 720 0 l 1
 0 0 l 1
EndSplineSet
EndChar

StartChar: F
Encoding: 70 70 6
Width: 780
VWidth: 1024
Flags: W
HStem: 0 21G<0 120> 300 120<120 720> 600 120<120 720>
VStem: 0 120<0 300 420 600>
LayerCount: 2
Fore
SplineSet
0 0 m 1
 0 720 l 1
 720 720 l 1
 720 600 l 1
 120 600 l 1
 120 420 l 1
 720 420 l 1
 720 300 l 1
 120 300 l 1
 120 0 l 1
 0 0 l 1
EndSplineSet
EndChar

StartChar: D
Encoding: 68 68 7
Width: 780
VWidth: 1024
Flags: W
HStem: 0 120<120 600> 600 120<120 600>
VStem: 0 120<120 600> 600 120<120 600>
LayerCount: 2
Fore
SplineSet
600 120 m 17
 600 600 l 1
 720 600 l 1
 720 120 l 1
 600 120 l 17
0 0 m 1
 0 720 l 1
 600 720 l 1
 600 600 l 1
 120 600 l 1
 120 120 l 1
 600 120 l 1
 600 0 l 1
 0 0 l 1
EndSplineSet
EndChar

StartChar: H
Encoding: 72 72 8
Width: 780
VWidth: 1024
Flags: W
HStem: 0 21G<0 120 600 720> 300 120<120 600> 700 20G<0 120 600 720>
VStem: 0 120<0 300 420 720> 600 120<0 300 420 720>
LayerCount: 2
Fore
SplineSet
0 0 m 1
 0 720 l 1
 120 720 l 1
 120 420 l 1
 600 420 l 1
 600 720 l 1
 720 720 l 1
 720 0 l 1
 600 0 l 1
 600 300 l 1
 120 300 l 1
 120 0 l 1
 0 0 l 1
EndSplineSet
EndChar

StartChar: I
Encoding: 73 73 9
Width: 180
VWidth: 1024
Flags: W
HStem: 0 21G<0 120> 700 20G<0 120>
VStem: 0 120<0 720>
LayerCount: 2
Fore
SplineSet
0 0 m 1
 0 720 l 1
 120 720 l 1
 120 0 l 1
 0 0 l 1
EndSplineSet
EndChar

StartChar: N
Encoding: 78 78 10
Width: 780
VWidth: 1024
Flags: W
HStem: 0 21G<0 120 600 720> 600 120<120 600>
VStem: 0 120<0 600> 600 120<0 600>
LayerCount: 2
Fore
SplineSet
0 0 m 1
 0 720 l 1
 720 720 l 1
 720 0 l 1
 600 0 l 1
 600 600 l 1
 120 600 l 1
 120 0 l 1
 0 0 l 1
EndSplineSet
EndChar

StartChar: P
Encoding: 80 80 11
Width: 780
VWidth: 1024
Flags: W
HStem: 0 21G<0 120> 300 120<120 600> 600 120<120 600>
VStem: 0 120<0 300 420 600> 600 120<420 600>
LayerCount: 2
Fore
SplineSet
120 420 m 1
 600 420 l 1
 600 600 l 1
 120 600 l 1
 120 420 l 1
0 0 m 1
 0 720 l 1
 720 720 l 1
 720 300 l 1
 120 300 l 1
 120 0 l 1
 0 0 l 1
EndSplineSet
EndChar

StartChar: S
Encoding: 83 83 12
Width: 780
VWidth: 1024
Flags: W
HStem: 0 120<0 600> 300 120<120 600> 600 120<120 720>
VStem: 0 120<420 600> 600 120<120 300>
CounterMasks: 1 e0
LayerCount: 2
Fore
SplineSet
0 0 m 1
 0 120 l 1
 600 120 l 1
 600 300 l 1
 0 300 l 1
 0 720 l 1
 720 720 l 1
 720 600 l 1
 120 600 l 1
 120 420 l 1
 720 420 l 1
 720 0 l 1
 0 0 l 1
EndSplineSet
EndChar

StartChar: U
Encoding: 85 85 13
Width: 780
VWidth: 1024
Flags: W
HStem: 0 120<120 600> 700 20G<0 120 600 720>
VStem: 0 120<120 720> 600 120<120 720>
LayerCount: 2
Fore
SplineSet
0 0 m 1
 0 720 l 1
 120 720 l 1
 120 120 l 1
 600 120 l 1
 600 720 l 1
 720 720 l 1
 720 0 l 1
 0 0 l 1
EndSplineSet
EndChar

StartChar: V
Encoding: 86 86 14
Width: 780
VWidth: 1024
Flags: W
HStem: 0 120<120 600> 700 20G<0 120 600 720>
VStem: 0 120<120 720> 600 120<120 720>
LayerCount: 2
Fore
SplineSet
120 0 m 9
 120 120 l 1
 600 120 l 1
 600 0 l 1
 120 0 l 9
600 120 m 1
 600 720 l 1
 720 720 l 1
 720 120 l 1
 600 120 l 1
0 120 m 1
 0 720 l 1
 120 720 l 1
 120 120 l 1
 0 120 l 1
EndSplineSet
EndChar

StartChar: L
Encoding: 76 76 15
Width: 780
VWidth: 1024
Flags: W
HStem: 0 120<120 720> 700 20G<0 120>
VStem: 0 120<120 720>
LayerCount: 2
Fore
SplineSet
0 0 m 1
 0 720 l 1
 120 720 l 1
 120 120 l 1
 720 120 l 1
 720 0 l 1
 0 0 l 1
EndSplineSet
EndChar

StartChar: seven
Encoding: 55 55 16
Width: 780
VWidth: 1024
Flags: W
HStem: 0 21G<600 720> 600 120<0 600>
VStem: 600 120<0 600>
LayerCount: 2
Fore
SplineSet
0 600 m 1
 0 720 l 1
 720 720 l 1
 720 0 l 1
 600 0 l 1
 600 600 l 1
 0 600 l 1
EndSplineSet
EndChar

StartChar: M
Encoding: 77 77 17
Width: 780
VWidth: 1024
Flags: W
HStem: 0 21G<0 120 300 420 600 720> 600 120<120 300 420 600>
VStem: 0 120<0 600> 300 120<0 600> 600 120<0 600>
CounterMasks: 1 38
LayerCount: 2
Fore
SplineSet
0 0 m 1
 0 720 l 1
 720 720 l 1
 720 0 l 1
 600 0 l 1
 600 600 l 1
 420 600 l 1
 420 0 l 1
 300 0 l 1
 300 600 l 1
 120 600 l 1
 120 0 l 1
 0 0 l 1
EndSplineSet
EndChar

StartChar: W
Encoding: 87 87 18
Width: 780
VWidth: 1024
Flags: W
HStem: 0 120<120 300 420 600> 700 20G<0 120 300 420 600 720>
VStem: 0 120<120 720> 300 120<120 720> 600 120<120 720>
CounterMasks: 1 38
LayerCount: 2
Fore
SplineSet
0 0 m 1
 0 720 l 1
 120 720 l 1
 120 120 l 1
 300 120 l 1
 300 720 l 1
 420 720 l 1
 420 120 l 1
 600 120 l 1
 600 720 l 1
 720 720 l 1
 720 0 l 1
 0 0 l 1
EndSplineSet
EndChar

StartChar: exclam
Encoding: 33 33 19
Width: 180
VWidth: 1024
Flags: W
HStem: 0 120<0 120> 700 20G<0 120>
VStem: 0 120<0 120 240 720>
LayerCount: 2
Fore
SplineSet
0 240 m 1
 0 720 l 1
 120 720 l 1
 120 240 l 1
 0 240 l 1
0 0 m 1
 0 120 l 1
 120 120 l 1
 120 0 l 1
 0 0 l 1
EndSplineSet
EndChar

StartChar: plus
Encoding: 43 43 20
Width: 780
VWidth: 1024
Flags: W
HStem: 0 21G<300 420> 300 120<0 300 420 720> 700 20G<300 420>
VStem: 300 120<0 300 420 720>
LayerCount: 2
Fore
SplineSet
0 300 m 1
 0 420 l 1
 300 420 l 1
 300 720 l 1
 420 720 l 1
 420 420 l 1
 720 420 l 1
 720 300 l 1
 420 300 l 1
 420 0 l 1
 300 0 l 1
 300 300 l 1
 0 300 l 1
EndSplineSet
EndChar

StartChar: hyphen
Encoding: 45 45 21
Width: 780
VWidth: 1024
Flags: W
HStem: 300 120<0 720>
LayerCount: 2
Fore
SplineSet
0 300 m 1
 0 420 l 1
 720 420 l 1
 720 300 l 1
 0 300 l 1
EndSplineSet
EndChar

StartChar: period
Encoding: 46 46 22
Width: 180
VWidth: 1024
Flags: W
HStem: 0 120<0 120>
VStem: 0 120<0 120>
LayerCount: 2
Fore
SplineSet
0 0 m 1
 0 120 l 1
 120 120 l 1
 120 0 l 1
 0 0 l 1
EndSplineSet
EndChar

StartChar: T
Encoding: 84 84 23
Width: 780
VWidth: 1024
Flags: W
HStem: 0 21G<300 420> 600 120<0 300 420 720>
VStem: 300 120<0 600>
LayerCount: 2
Fore
SplineSet
0 600 m 1
 0 720 l 1
 720 720 l 1
 720 600 l 1
 420 600 l 1
 420 0 l 1
 300 0 l 1
 300 600 l 1
 0 600 l 1
EndSplineSet
EndChar

StartChar: Q
Encoding: 81 81 24
Width: 780
VWidth: 1024
Flags: W
HStem: 0 120<0 120 240 600> 600 120<240 600>
VStem: 120 120<120 600> 600 120<120 600>
LayerCount: 2
Fore
SplineSet
240 120 m 1
 600 120 l 1
 600 600 l 1
 240 600 l 1
 240 120 l 1
0 0 m 1
 0 120 l 1
 120 120 l 1
 120 720 l 1
 720 720 l 1
 720 0 l 1
 0 0 l 1
EndSplineSet
EndChar

StartChar: comma
Encoding: 44 44 25
Width: 180
VWidth: 1024
Flags: W
HStem: -120 240<0 120>
VStem: 0 120<-120 120>
LayerCount: 2
Fore
SplineSet
0 -120 m 1
 0 120 l 1
 120 120 l 1
 120 -120 l 1
 0 -120 l 1
EndSplineSet
EndChar

StartChar: slash
Encoding: 47 47 26
Width: 780
VWidth: 1024
Flags: W
HStem: 0 120<0 120> 120 120<120 240> 240 120<240 360> 360 120<360 480> 480 120<480 600> 600 120<600 720>
VStem: 0 120<0 120> 120 120<120 240> 240 120<240 360> 360 120<360 480> 480 120<480 600> 600 120<600 720>
LayerCount: 2
Fore
SplineSet
600 600 m 1x0820
 600 720 l 1
 720 720 l 1
 720 600 l 1x0410
 600 600 l 1x0820
480 480 m 1x1040
 480 600 l 1
 600 600 l 1
 600 480 l 1x0820
 480 480 l 1x1040
360 360 m 1x2080
 360 480 l 1
 480 480 l 1
 480 360 l 1x1040
 360 360 l 1x2080
240 240 m 1x41
 240 360 l 1
 360 360 l 1
 360 240 l 1x2080
 240 240 l 1x41
120 120 m 1x82
 120 240 l 1
 240 240 l 1
 240 120 l 1x41
 120 120 l 1x82
0 0 m 1x82
 0 120 l 1
 120 120 l 1
 120 0 l 1
 0 0 l 1x82
EndSplineSet
EndChar

StartChar: quotesingle
Encoding: 39 39 27
Width: 180
VWidth: 1024
Flags: W
HStem: 480 240<0 120>
VStem: 0 120<480 720>
LayerCount: 2
Fore
SplineSet
0 480 m 1
 0 720 l 1
 120 720 l 1
 120 480 l 1
 0 480 l 1
EndSplineSet
EndChar

StartChar: percent
Encoding: 37 37 28
Width: 780
VWidth: 1024
Flags: W
HStem: 0 120<0 120 600 720> 120 120<120 240> 240 120<240 360> 360 120<360 480> 480 120<480 600> 600 120<0 120 600 720>
VStem: 0 120<0 120 600 720> 120 120<120 240> 240 120<240 360> 360 120<360 480> 480 120<480 600> 600 120<0 120 600 720>
LayerCount: 2
Fore
SplineSet
600 0 m 1x8010
 600 120 l 1
 720 120 l 1
 720 0 l 1
 600 0 l 1x8010
0 600 m 1x06
 0 720 l 1
 120 720 l 1
 120 600 l 1
 0 600 l 1x06
600 600 m 1x0820
 600 720 l 1
 720 720 l 1
 720 600 l 1x0410
 600 600 l 1x0820
480 480 m 1x1040
 480 600 l 1
 600 600 l 1
 600 480 l 1x0820
 480 480 l 1x1040
360 360 m 1x2080
 360 480 l 1
 480 480 l 1
 480 360 l 1x1040
 360 360 l 1x2080
240 240 m 1x41
 240 360 l 1
 360 360 l 1
 360 240 l 1x2080
 240 240 l 1x41
120 120 m 1x82
 120 240 l 1
 240 240 l 1
 240 120 l 1x41
 120 120 l 1x82
0 0 m 1x82
 0 120 l 1
 120 120 l 1
 120 0 l 1
 0 0 l 1x82
EndSplineSet
EndChar

StartChar: parenleft
Encoding: 40 40 29
Width: 420
VWidth: 1024
Flags: W
HStem: -120 120<120 360> 0 21G<0 120> 700 20G<0 120> 720 120<120 360>
VStem: 0 120<0 720> 120 240<-120 0 720 840>
LayerCount: 2
Fore
SplineSet
120 -120 m 1x84
 120 0 l 1x88
 360 0 l 1
 360 -120 l 1
 120 -120 l 1x84
120 720 m 1x28
 120 840 l 1
 360 840 l 1
 360 720 l 1x14
 120 720 l 1x28
0 0 m 1x48
 0 720 l 1
 120 720 l 1
 120 0 l 1xa8
 0 0 l 1x48
EndSplineSet
EndChar

StartChar: parenright
Encoding: 41 41 30
Width: 420
VWidth: 1024
Flags: W
HStem: -120 120<0 240> 0 21G<240 360> 700 20G<240 360> 720 120<0 240>
VStem: 0 240<-120 0 720 840> 240 120<0 720>
LayerCount: 2
Fore
SplineSet
240 0 m 1x88
 240 720 l 1xa8
 360 720 l 1
 360 0 l 1x64
 240 0 l 1x88
0 720 m 1x18
 0 840 l 1
 240 840 l 1x18
 240 720 l 1x28
 0 720 l 1x18
0 -120 m 1x88
 0 0 l 1
 240 0 l 1
 240 -120 l 1
 0 -120 l 1x88
EndSplineSet
EndChar

StartChar: a
Encoding: 97 97 33
Width: 780
VWidth: 1024
Flags: W
HStem: 0 21G<0 120 600 720> 300 120<120 600> 600 120<120 600>
VStem: 0 120<0 300 420 600> 600 120<0 300 420 600>
LayerCount: 2
Fore
SplineSet
120 420 m 1
 600 420 l 1
 600 600 l 1
 120 600 l 1
 120 420 l 1
0 0 m 1
 0 720 l 1
 720 720 l 1
 720 0 l 1
 600 0 l 1
 600 300 l 1
 120 300 l 1
 120 0 l 1
 0 0 l 1
EndSplineSet
EndChar

StartChar: b
Encoding: 98 98 34
Width: 780
VWidth: 1024
Flags: W
HStem: 0 120<120 600> 300 120<120 600> 600 120<120 600>
VStem: 0 120<120 300 420 600> 600 120<120 300 420 600>
CounterMasks: 1 e0
LayerCount: 2
Fore
SplineSet
120 420 m 1
 600 420 l 1
 600 600 l 1
 120 600 l 1
 120 420 l 1
120 120 m 1
 600 120 l 1
 600 300 l 1
 120 300 l 1
 120 120 l 1
0 0 m 1
 0 720 l 1
 720 720 l 1
 720 0 l 1
 0 0 l 1
EndSplineSet
EndChar

StartChar: c
Encoding: 99 99 35
Width: 780
VWidth: 1024
Flags: W
HStem: 0 120<120 720> 600 120<120 720>
VStem: 0 120<120 600>
LayerCount: 2
Fore
SplineSet
0 0 m 1
 0 720 l 1
 720 720 l 1
 720 600 l 1
 120 600 l 1
 120 120 l 1
 720 120 l 1
 720 0 l 1
 0 0 l 1
EndSplineSet
EndChar

StartChar: d
Encoding: 100 100 36
Width: 780
VWidth: 1024
Flags: W
HStem: 0 120<120 600> 600 120<120 600>
VStem: 0 120<120 600> 600 120<120 600>
LayerCount: 2
Fore
SplineSet
600 120 m 17
 600 600 l 1
 720 600 l 1
 720 120 l 1
 600 120 l 17
0 0 m 1
 0 720 l 1
 600 720 l 1
 600 600 l 1
 120 600 l 1
 120 120 l 1
 600 120 l 1
 600 0 l 1
 0 0 l 1
EndSplineSet
EndChar

StartChar: e
Encoding: 101 101 37
Width: 780
VWidth: 1024
Flags: W
HStem: 0 120<120 720> 300 120<120 720> 600 120<120 720>
VStem: 0 120<120 300 420 600>
CounterMasks: 1 e0
LayerCount: 2
Fore
SplineSet
0 0 m 1
 0 720 l 1
 720 720 l 1
 720 600 l 1
 120 600 l 1
 120 420 l 1
 720 420 l 1
 720 300 l 1
 120 300 l 1
 120 120 l 1
 720 120 l 1
 720 0 l 1
 0 0 l 1
EndSplineSet
EndChar

StartChar: f
Encoding: 102 102 38
Width: 780
VWidth: 1024
Flags: W
HStem: 0 21G<0 120> 300 120<120 720> 600 120<120 720>
VStem: 0 120<0 300 420 600>
LayerCount: 2
Fore
SplineSet
0 0 m 1
 0 720 l 1
 720 720 l 1
 720 600 l 1
 120 600 l 1
 120 420 l 1
 720 420 l 1
 720 300 l 1
 120 300 l 1
 120 0 l 1
 0 0 l 1
EndSplineSet
EndChar

StartChar: h
Encoding: 104 104 39
Width: 780
VWidth: 1024
Flags: W
HStem: 0 21G<0 120 600 720> 300 120<120 600> 700 20G<0 120 600 720>
VStem: 0 120<0 300 420 720> 600 120<0 300 420 720>
LayerCount: 2
Fore
SplineSet
0 0 m 1
 0 720 l 1
 120 720 l 1
 120 420 l 1
 600 420 l 1
 600 720 l 1
 720 720 l 1
 720 0 l 1
 600 0 l 1
 600 300 l 1
 120 300 l 1
 120 0 l 1
 0 0 l 1
EndSplineSet
EndChar

StartChar: i
Encoding: 105 105 40
Width: 180
VWidth: 1024
Flags: W
HStem: 0 21G<0 120> 700 20G<0 120>
VStem: 0 120<0 720>
LayerCount: 2
Fore
SplineSet
0 0 m 1
 0 720 l 1
 120 720 l 1
 120 0 l 1
 0 0 l 1
EndSplineSet
EndChar

StartChar: l
Encoding: 108 108 41
Width: 780
VWidth: 1024
Flags: W
HStem: 0 120<120 720> 700 20G<0 120>
VStem: 0 120<120 720>
LayerCount: 2
Fore
SplineSet
0 0 m 1
 0 720 l 1
 120 720 l 1
 120 120 l 1
 720 120 l 1
 720 0 l 1
 0 0 l 1
EndSplineSet
EndChar

StartChar: m
Encoding: 109 109 42
Width: 780
VWidth: 1024
Flags: W
HStem: 0 21G<0 120 300 420 600 720> 600 120<120 300 420 600>
VStem: 0 120<0 600> 300 120<0 600> 600 120<0 600>
CounterMasks: 1 38
LayerCount: 2
Fore
SplineSet
0 0 m 1
 0 720 l 1
 720 720 l 1
 720 0 l 1
 600 0 l 1
 600 600 l 1
 420 600 l 1
 420 0 l 1
 300 0 l 1
 300 600 l 1
 120 600 l 1
 120 0 l 1
 0 0 l 1
EndSplineSet
EndChar

StartChar: n
Encoding: 110 110 43
Width: 780
VWidth: 1024
Flags: W
HStem: 0 21G<0 120 600 720> 600 120<120 600>
VStem: 0 120<0 600> 600 120<0 600>
LayerCount: 2
Fore
SplineSet
0 0 m 1
 0 720 l 1
 720 720 l 1
 720 0 l 1
 600 0 l 1
 600 600 l 1
 120 600 l 1
 120 0 l 1
 0 0 l 1
EndSplineSet
EndChar

StartChar: o
Encoding: 111 111 44
Width: 780
VWidth: 1024
Flags: W
HStem: 0 120<120 600> 600 120<120 600>
VStem: 0 120<120 600> 600 120<120 600>
LayerCount: 2
Fore
SplineSet
120 120 m 1
 600 120 l 1
 600 600 l 1
 120 600 l 1
 120 120 l 1
0 0 m 1
 0 720 l 1
 720 720 l 1
 720 0 l 1
 0 0 l 1
EndSplineSet
EndChar

StartChar: p
Encoding: 112 112 45
Width: 780
VWidth: 1024
Flags: W
HStem: 0 21G<0 120> 300 120<120 600> 600 120<120 600>
VStem: 0 120<0 300 420 600> 600 120<420 600>
LayerCount: 2
Fore
SplineSet
120 420 m 1
 600 420 l 1
 600 600 l 1
 120 600 l 1
 120 420 l 1
0 0 m 1
 0 720 l 1
 720 720 l 1
 720 300 l 1
 120 300 l 1
 120 0 l 1
 0 0 l 1
EndSplineSet
EndChar

StartChar: q
Encoding: 113 113 46
Width: 780
VWidth: 1024
Flags: W
HStem: 0 120<0 120 240 600> 600 120<240 600>
VStem: 120 120<120 600> 600 120<120 600>
LayerCount: 2
Fore
SplineSet
240 120 m 1
 600 120 l 1
 600 600 l 1
 240 600 l 1
 240 120 l 1
0 0 m 1
 0 120 l 1
 120 120 l 1
 120 720 l 1
 720 720 l 1
 720 0 l 1
 0 0 l 1
EndSplineSet
EndChar

StartChar: s
Encoding: 115 115 47
Width: 780
VWidth: 1024
Flags: W
HStem: 0 120<0 600> 300 120<120 600> 600 120<120 720>
VStem: 0 120<420 600> 600 120<120 300>
CounterMasks: 1 e0
LayerCount: 2
Fore
SplineSet
0 0 m 1
 0 120 l 1
 600 120 l 1
 600 300 l 1
 0 300 l 1
 0 720 l 1
 720 720 l 1
 720 600 l 1
 120 600 l 1
 120 420 l 1
 720 420 l 1
 720 0 l 1
 0 0 l 1
EndSplineSet
EndChar

StartChar: t
Encoding: 116 116 48
Width: 780
VWidth: 1024
Flags: W
HStem: 0 21G<300 420> 600 120<0 300 420 720>
VStem: 300 120<0 600>
LayerCount: 2
Fore
SplineSet
0 600 m 1
 0 720 l 1
 720 720 l 1
 720 600 l 1
 420 600 l 1
 420 0 l 1
 300 0 l 1
 300 600 l 1
 0 600 l 1
EndSplineSet
EndChar

StartChar: u
Encoding: 117 117 49
Width: 780
VWidth: 1024
Flags: W
HStem: 0 120<120 600> 700 20G<0 120 600 720>
VStem: 0 120<120 720> 600 120<120 720>
LayerCount: 2
Fore
SplineSet
0 0 m 1
 0 720 l 1
 120 720 l 1
 120 120 l 1
 600 120 l 1
 600 720 l 1
 720 720 l 1
 720 0 l 1
 0 0 l 1
EndSplineSet
EndChar

StartChar: v
Encoding: 118 118 50
Width: 780
VWidth: 1024
Flags: W
HStem: 0 120<120 600> 700 20G<0 120 600 720>
VStem: 0 120<120 720> 600 120<120 720>
LayerCount: 2
Fore
SplineSet
120 0 m 9
 120 120 l 1
 600 120 l 1
 600 0 l 1
 120 0 l 9
600 120 m 1
 600 720 l 1
 720 720 l 1
 720 120 l 1
 600 120 l 1
0 120 m 1
 0 720 l 1
 120 720 l 1
 120 120 l 1
 0 120 l 1
EndSplineSet
EndChar

StartChar: w
Encoding: 119 119 51
Width: 780
VWidth: 1024
Flags: W
HStem: 0 120<120 300 420 600> 700 20G<0 120 300 420 600 720>
VStem: 0 120<120 720> 300 120<120 720> 600 120<120 720>
CounterMasks: 1 38
LayerCount: 2
Fore
SplineSet
0 0 m 1
 0 720 l 1
 120 720 l 1
 120 120 l 1
 300 120 l 1
 300 720 l 1
 420 720 l 1
 420 120 l 1
 600 120 l 1
 600 720 l 1
 720 720 l 1
 720 0 l 1
 0 0 l 1
EndSplineSet
EndChar

StartChar: colon
Encoding: 58 58 52
Width: 180
VWidth: 1024
Flags: W
HStem: 0 120<0 120> 300 120<0 120>
VStem: 0 120<0 120 300 420>
LayerCount: 2
Fore
SplineSet
0 300 m 1
 0 420 l 1
 120 420 l 1
 120 300 l 1
 0 300 l 1
0 0 m 1
 0 120 l 1
 120 120 l 1
 120 0 l 1
 0 0 l 1
EndSplineSet
EndChar

StartChar: semicolon
Encoding: 59 59 53
Width: 180
VWidth: 1024
Flags: W
HStem: 300 120<0 120>
VStem: 0 120<-120 120 300 420>
LayerCount: 2
Fore
SplineSet
0 -120 m 1
 0 120 l 1
 120 120 l 1
 120 -120 l 1
 0 -120 l 1
0 300 m 1
 0 420 l 1
 120 420 l 1
 120 300 l 1
 0 300 l 1
EndSplineSet
EndChar

StartChar: exclamdown
Encoding: 161 161 54
Width: 180
VWidth: 1024
Flags: W
HStem: 0 21G<0 120> 600 120<0 120>
VStem: 0 120<0 480 600 720>
LayerCount: 2
Fore
SplineSet
0 0 m 1
 0 480 l 1
 120 480 l 1
 120 0 l 1
 0 0 l 1
0 600 m 1
 0 720 l 1
 120 720 l 1
 120 600 l 1
 0 600 l 1
EndSplineSet
EndChar

StartChar: quoteright
Encoding: 8217 8217 55
Width: 180
VWidth: 1024
Flags: W
HStem: 480 240<0 120>
VStem: 0 120<480 720>
LayerCount: 2
Fore
SplineSet
0 480 m 1
 0 720 l 1
 120 720 l 1
 120 480 l 1
 0 480 l 1
EndSplineSet
EndChar

StartChar: G
Encoding: 71 71 56
Width: 780
VWidth: 1024
Flags: W
HStem: 0 120<120 600> 300 120<300 600> 600 120<120 720>
VStem: 0 120<120 600> 600 120<120 300>
CounterMasks: 1 e0
LayerCount: 2
Fore
SplineSet
0 0 m 1
 0 720 l 1
 720 720 l 1
 720 600 l 1
 120 600 l 1
 120 120 l 1
 600 120 l 1
 600 300 l 1
 300 300 l 1
 300 420 l 1
 720 420 l 1
 720 0 l 1
 0 0 l 1
EndSplineSet
EndChar

StartChar: J
Encoding: 74 74 57
Width: 780
VWidth: 1024
Flags: W
HStem: 0 120<120 600> 700 20G<600 720>
VStem: 0 120<120 420> 600 120<120 720>
LayerCount: 2
Fore
SplineSet
0 0 m 1
 0 420 l 1
 120 420 l 1
 120 120 l 1
 600 120 l 1
 600 720 l 1
 720 720 l 1
 720 0 l 1
 0 0 l 1
EndSplineSet
EndChar

StartChar: R
Encoding: 82 82 58
Width: 780
VWidth: 1024
Flags: W
HStem: 0 120<600 720> 300 120<120 480> 600 120<120 600>
VStem: 0 120<0 300 420 600> 480 120<120 300> 600 120<420 600>
CounterMasks: 1 e0
LayerCount: 2
Fore
SplineSet
0 0 m 1xf8
 0 720 l 1
 720 720 l 1
 720 300 l 1xf4
 600 300 l 1
 600 120 l 1xf8
 720 120 l 1
 720 0 l 1xf4
 480 0 l 1
 480 300 l 1
 120 300 l 1
 120 0 l 1
 0 0 l 1xf8
120 420 m 1
 600 420 l 1
 600 600 l 1
 120 600 l 1
 120 420 l 1
EndSplineSet
EndChar

StartChar: r
Encoding: 114 114 59
Width: 780
VWidth: 1024
Flags: W
HStem: 0 120<600 720> 300 120<120 480> 600 120<120 600>
VStem: 0 120<0 300 420 600> 480 120<120 300> 600 120<420 600>
CounterMasks: 1 e0
LayerCount: 2
Fore
SplineSet
0 0 m 1xf8
 0 720 l 1
 720 720 l 1
 720 300 l 1xf4
 600 300 l 1
 600 120 l 1xf8
 720 120 l 1
 720 0 l 1xf4
 480 0 l 1
 480 300 l 1
 120 300 l 1
 120 0 l 1
 0 0 l 1xf8
120 420 m 1
 600 420 l 1
 600 600 l 1
 120 600 l 1
 120 420 l 1
EndSplineSet
EndChar

StartChar: j
Encoding: 106 106 60
Width: 780
VWidth: 1024
Flags: W
HStem: 0 120<120 600> 700 20G<600 720>
VStem: 0 120<120 420> 600 120<120 720>
LayerCount: 2
Fore
SplineSet
0 0 m 1
 0 420 l 1
 120 420 l 1
 120 120 l 1
 600 120 l 1
 600 720 l 1
 720 720 l 1
 720 0 l 1
 0 0 l 1
EndSplineSet
EndChar

StartChar: g
Encoding: 103 103 61
Width: 780
VWidth: 1024
Flags: W
HStem: 0 120<120 600> 300 120<300 600> 600 120<120 720>
VStem: 0 120<120 600> 600 120<120 300>
CounterMasks: 1 e0
LayerCount: 2
Fore
SplineSet
0 0 m 1
 0 720 l 1
 720 720 l 1
 720 600 l 1
 120 600 l 1
 120 120 l 1
 600 120 l 1
 600 300 l 1
 300 300 l 1
 300 420 l 1
 720 420 l 1
 720 0 l 1
 0 0 l 1
EndSplineSet
EndChar

StartChar: eight
Encoding: 56 56 62
Width: 780
VWidth: 1024
Flags: W
HStem: 0 120<120 600> 360 120<120 600> 600 120<120 600>
VStem: 0 120<120 360 480 600> 600 120<120 360 480 600>
LayerCount: 2
Fore
SplineSet
120 480 m 1
 600 480 l 1
 600 600 l 1
 120 600 l 1
 120 480 l 1
120 120 m 1
 600 120 l 1
 600 360 l 1
 120 360 l 1
 120 120 l 1
0 0 m 1
 0 720 l 1
 720 720 l 1
 720 0 l 1
 0 0 l 1
EndSplineSet
EndChar

StartChar: nine
Encoding: 57 57 63
Width: 780
VWidth: 1024
Flags: W
HStem: 0 21G<600 720> 240 120<120 600> 600 120<120 600>
VStem: 0 120<360 600> 600 120<0 240 360 600>
LayerCount: 2
Fore
SplineSet
120 360 m 1
 600 360 l 1
 600 600 l 1
 120 600 l 1
 120 360 l 1
0 240 m 1
 0 720 l 1
 720 720 l 1
 720 0 l 1
 600 0 l 1
 600 240 l 1
 0 240 l 1
EndSplineSet
EndChar

StartChar: six
Encoding: 54 54 64
Width: 780
VWidth: 1024
Flags: W
HStem: 0 120<120 600> 360 120<120 600> 700 20G<0 120>
VStem: 0 120<120 360 480 720> 600 120<120 360>
LayerCount: 2
Fore
SplineSet
120 120 m 1
 600 120 l 1
 600 360 l 1
 120 360 l 1
 120 120 l 1
0 0 m 1
 0 720 l 1
 120 720 l 1
 120 480 l 1
 720 480 l 1
 720 0 l 1
 0 0 l 1
EndSplineSet
EndChar

StartChar: five
Encoding: 53 53 65
Width: 780
VWidth: 1024
Flags: W
HStem: 0 120<0 600> 360 120<120 600> 600 120<120 720>
VStem: 0 120<480 600> 600 120<120 360>
LayerCount: 2
Fore
SplineSet
0 0 m 1
 0 120 l 1
 600 120 l 1
 600 360 l 1
 0 360 l 1
 0 720 l 1
 720 720 l 1
 720 600 l 1
 120 600 l 1
 120 480 l 1
 720 480 l 1
 720 0 l 1
 0 0 l 1
EndSplineSet
EndChar

StartChar: two
Encoding: 50 50 66
Width: 780
VWidth: 1024
Flags: W
HStem: 0 120<120 720> 360 120<120 600> 600 120<0 600>
VStem: 0 120<120 360> 600 120<480 600>
LayerCount: 2
Fore
SplineSet
0 0 m 1
 0 480 l 1
 600 480 l 1
 600 600 l 1
 0 600 l 1
 0 720 l 1
 720 720 l 1
 720 360 l 1
 120 360 l 1
 120 120 l 1
 720 120 l 1
 720 0 l 1
 0 0 l 1
EndSplineSet
EndChar

StartChar: one
Encoding: 49 49 67
Width: 780
VWidth: 1024
Flags: W
HStem: 0 120<0 300 420 720> 600 120<0 300>
VStem: 300 120<120 600>
LayerCount: 2
Fore
SplineSet
0 0 m 1
 0 120 l 1
 300 120 l 1
 300 600 l 1
 0 600 l 1
 0 720 l 1
 420 720 l 1
 420 120 l 1
 720 120 l 1
 720 0 l 1
 0 0 l 1
EndSplineSet
EndChar

StartChar: three
Encoding: 51 51 68
Width: 780
VWidth: 1024
Flags: W
HStem: 0 120<0 600> 360 120<0 600> 600 120<0 600>
VStem: 600 120<120 360 480 600>
LayerCount: 2
Fore
SplineSet
0 0 m 1
 0 120 l 1
 600 120 l 1
 600 360 l 1
 0 360 l 1
 0 480 l 1
 600 480 l 1
 600 600 l 1
 0 600 l 1
 0 720 l 1
 720 720 l 1
 720 0 l 1
 0 0 l 1
EndSplineSet
EndChar

StartChar: four
Encoding: 52 52 69
Width: 780
VWidth: 1024
Flags: W
HStem: 0 21G<360 480> 360 120<120 360 480 720> 700 20G<0 120 360 480>
VStem: 0 120<480 720> 360 120<0 360 480 720>
LayerCount: 2
Fore
SplineSet
0 360 m 1
 0 720 l 1
 120 720 l 1
 120 480 l 1
 360 480 l 1
 360 720 l 1
 480 720 l 1
 480 480 l 1
 720 480 l 1
 720 360 l 1
 480 360 l 1
 480 0 l 1
 360 0 l 1
 360 360 l 1
 0 360 l 1
EndSplineSet
EndChar

StartChar: braceleft
Encoding: 123 123 70
Width: 540
VWidth: 1024
Flags: W
HStem: -120 120<240 480> 0 21G<120 240> 300 120<0 120> 700 20G<120 240> 720 120<240 480>
VStem: 120 120<0 300 420 720> 240 240<-120 0 720 840>
LayerCount: 2
Fore
SplineSet
0 300 m 1x64
 0 420 l 1
 120 420 l 1
 120 720 l 1
 240 720 l 1
 240 0 l 1xb4
 120 0 l 1
 120 300 l 1
 0 300 l 1x64
240 720 m 1
 240 840 l 1
 480 840 l 1
 480 720 l 1x2a
 240 720 l 1
240 -120 m 1xa2
 240 0 l 1xa4
 480 0 l 1
 480 -120 l 1
 240 -120 l 1xa2
EndSplineSet
EndChar

StartChar: braceright
Encoding: 125 125 71
Width: 540
VWidth: 1024
Flags: W
HStem: -120 120<0 240> 0 21G<240 360> 300 120<360 480> 700 20G<240 360> 720 120<0 240>
VStem: 0 240<-120 0 720 840> 240 120<0 300 420 720>
LayerCount: 2
Fore
SplineSet
240 0 m 1xa4
 240 720 l 1xb4
 360 720 l 1
 360 420 l 1
 480 420 l 1
 480 300 l 1
 360 300 l 1
 360 0 l 1x72
 240 0 l 1xa4
0 720 m 1x2c
 0 840 l 1
 240 840 l 1x2c
 240 720 l 1x34
 0 720 l 1x2c
0 -120 m 1xa4
 0 0 l 1
 240 0 l 1
 240 -120 l 1
 0 -120 l 1xa4
EndSplineSet
EndChar

StartChar: bracketleft
Encoding: 91 91 72
Width: 420
VWidth: 1024
Flags: W
HStem: -120 120<120 360> 720 120<120 360>
VStem: 0 120<0 720>
LayerCount: 2
Fore
SplineSet
0 -120 m 1
 0 840 l 1
 360 840 l 1
 360 720 l 1
 120 720 l 1
 120 0 l 1
 360 0 l 1
 360 -120 l 1
 0 -120 l 1
EndSplineSet
EndChar

StartChar: bracketright
Encoding: 93 93 73
Width: 420
VWidth: 1024
Flags: W
HStem: -120 120<0 240> 720 120<0 240>
VStem: 240 120<0 720>
LayerCount: 2
Fore
SplineSet
0 -120 m 1
 0 0 l 1
 240 0 l 1
 240 720 l 1
 0 720 l 1
 0 840 l 1
 360 840 l 1
 360 -120 l 1
 0 -120 l 1
EndSplineSet
EndChar

StartChar: equal
Encoding: 61 61 74
Width: 780
VWidth: 1024
Flags: W
HStem: 180 120<0 720> 420 120<0 720>
LayerCount: 2
Fore
SplineSet
0 420 m 1
 0 540 l 1
 720 540 l 1
 720 420 l 1
 0 420 l 1
0 180 m 1
 0 300 l 1
 720 300 l 1
 720 180 l 1
 0 180 l 1
EndSplineSet
EndChar

StartChar: Egrave
Encoding: 200 200 75
Width: 780
VWidth: 1024
Flags: W
HStem: 0 120<120 720> 300 120<120 720> 600 120<120 720>
VStem: 0 120<120 300 420 600>
CounterMasks: 1 e0
LayerCount: 2
Fore
SplineSet
0 0 m 1
 0 720 l 1
 720 720 l 1
 720 600 l 1
 120 600 l 1
 120 420 l 1
 720 420 l 1
 720 300 l 1
 120 300 l 1
 120 120 l 1
 720 120 l 1
 720 0 l 1
 0 0 l 1
EndSplineSet
EndChar

StartChar: Eacute
Encoding: 201 201 76
Width: 780
VWidth: 1024
Flags: W
HStem: 0 120<120 720> 300 120<120 720> 600 120<120 720>
VStem: 0 120<120 300 420 600>
CounterMasks: 1 e0
LayerCount: 2
Fore
SplineSet
0 0 m 1
 0 720 l 1
 720 720 l 1
 720 600 l 1
 120 600 l 1
 120 420 l 1
 720 420 l 1
 720 300 l 1
 120 300 l 1
 120 120 l 1
 720 120 l 1
 720 0 l 1
 0 0 l 1
EndSplineSet
EndChar

StartChar: Ecircumflex
Encoding: 202 202 77
Width: 780
VWidth: 1024
Flags: W
HStem: 0 120<120 720> 300 120<120 720> 600 120<120 720>
VStem: 0 120<120 300 420 600>
CounterMasks: 1 e0
LayerCount: 2
Fore
SplineSet
0 0 m 1
 0 720 l 1
 720 720 l 1
 720 600 l 1
 120 600 l 1
 120 420 l 1
 720 420 l 1
 720 300 l 1
 120 300 l 1
 120 120 l 1
 720 120 l 1
 720 0 l 1
 0 0 l 1
EndSplineSet
EndChar

StartChar: Edieresis
Encoding: 203 203 78
Width: 780
VWidth: 1024
Flags: W
HStem: 0 120<120 720> 300 120<120 720> 600 120<120 720>
VStem: 0 120<120 300 420 600>
CounterMasks: 1 e0
LayerCount: 2
Fore
SplineSet
0 0 m 1
 0 720 l 1
 720 720 l 1
 720 600 l 1
 120 600 l 1
 120 420 l 1
 720 420 l 1
 720 300 l 1
 120 300 l 1
 120 120 l 1
 720 120 l 1
 720 0 l 1
 0 0 l 1
EndSplineSet
EndChar

StartChar: egrave
Encoding: 232 232 79
Width: 780
VWidth: 1024
Flags: W
HStem: 0 120<120 720> 300 120<120 720> 600 120<120 720>
VStem: 0 120<120 300 420 600>
CounterMasks: 1 e0
LayerCount: 2
Fore
SplineSet
0 0 m 1
 0 720 l 1
 720 720 l 1
 720 600 l 1
 120 600 l 1
 120 420 l 1
 720 420 l 1
 720 300 l 1
 120 300 l 1
 120 120 l 1
 720 120 l 1
 720 0 l 1
 0 0 l 1
EndSplineSet
EndChar

StartChar: eacute
Encoding: 233 233 80
Width: 780
VWidth: 1024
Flags: W
HStem: 0 120<120 720> 300 120<120 720> 600 120<120 720>
VStem: 0 120<120 300 420 600>
CounterMasks: 1 e0
LayerCount: 2
Fore
SplineSet
0 0 m 1
 0 720 l 1
 720 720 l 1
 720 600 l 1
 120 600 l 1
 120 420 l 1
 720 420 l 1
 720 300 l 1
 120 300 l 1
 120 120 l 1
 720 120 l 1
 720 0 l 1
 0 0 l 1
EndSplineSet
EndChar

StartChar: ecircumflex
Encoding: 234 234 81
Width: 780
VWidth: 1024
Flags: W
HStem: 0 120<120 720> 300 120<120 720> 600 120<120 720>
VStem: 0 120<120 300 420 600>
CounterMasks: 1 e0
LayerCount: 2
Fore
SplineSet
0 0 m 1
 0 720 l 1
 720 720 l 1
 720 600 l 1
 120 600 l 1
 120 420 l 1
 720 420 l 1
 720 300 l 1
 120 300 l 1
 120 120 l 1
 720 120 l 1
 720 0 l 1
 0 0 l 1
EndSplineSet
EndChar

StartChar: edieresis
Encoding: 235 235 82
Width: 780
VWidth: 1024
Flags: W
HStem: 0 120<120 720> 300 120<120 720> 600 120<120 720>
VStem: 0 120<120 300 420 600>
CounterMasks: 1 e0
LayerCount: 2
Fore
SplineSet
0 0 m 1
 0 720 l 1
 720 720 l 1
 720 600 l 1
 120 600 l 1
 120 420 l 1
 720 420 l 1
 720 300 l 1
 120 300 l 1
 120 120 l 1
 720 120 l 1
 720 0 l 1
 0 0 l 1
EndSplineSet
EndChar

StartChar: Ccedilla
Encoding: 199 199 83
Width: 780
VWidth: 1024
Flags: W
HStem: 0 120<120 720> 600 120<120 720>
VStem: 0 120<120 600>
LayerCount: 2
Fore
SplineSet
0 0 m 1
 0 720 l 1
 720 720 l 1
 720 600 l 1
 120 600 l 1
 120 120 l 1
 720 120 l 1
 720 0 l 1
 0 0 l 1
EndSplineSet
EndChar

StartChar: ccedilla
Encoding: 231 231 84
Width: 780
VWidth: 1024
Flags: W
HStem: 0 120<120 720> 600 120<120 720>
VStem: 0 120<120 600>
LayerCount: 2
Fore
SplineSet
0 0 m 1
 0 720 l 1
 720 720 l 1
 720 600 l 1
 120 600 l 1
 120 120 l 1
 720 120 l 1
 720 0 l 1
 0 0 l 1
EndSplineSet
EndChar

StartChar: Agrave
Encoding: 192 192 85
Width: 780
VWidth: 1024
Flags: W
HStem: 0 21G<0 120 600 720> 300 120<120 600> 600 120<120 600>
VStem: 0 120<0 300 420 600> 600 120<0 300 420 600>
LayerCount: 2
Fore
SplineSet
120 420 m 1
 600 420 l 1
 600 600 l 1
 120 600 l 1
 120 420 l 1
0 0 m 1
 0 720 l 1
 720 720 l 1
 720 0 l 1
 600 0 l 1
 600 300 l 1
 120 300 l 1
 120 0 l 1
 0 0 l 1
EndSplineSet
EndChar

StartChar: Aacute
Encoding: 193 193 86
Width: 780
VWidth: 1024
Flags: W
HStem: 0 21G<0 120 600 720> 300 120<120 600> 600 120<120 600>
VStem: 0 120<0 300 420 600> 600 120<0 300 420 600>
LayerCount: 2
Fore
SplineSet
120 420 m 1
 600 420 l 1
 600 600 l 1
 120 600 l 1
 120 420 l 1
0 0 m 1
 0 720 l 1
 720 720 l 1
 720 0 l 1
 600 0 l 1
 600 300 l 1
 120 300 l 1
 120 0 l 1
 0 0 l 1
EndSplineSet
EndChar

StartChar: Acircumflex
Encoding: 194 194 87
Width: 780
VWidth: 1024
Flags: W
HStem: 0 21G<0 120 600 720> 300 120<120 600> 600 120<120 600>
VStem: 0 120<0 300 420 600> 600 120<0 300 420 600>
LayerCount: 2
Fore
SplineSet
120 420 m 1
 600 420 l 1
 600 600 l 1
 120 600 l 1
 120 420 l 1
0 0 m 1
 0 720 l 1
 720 720 l 1
 720 0 l 1
 600 0 l 1
 600 300 l 1
 120 300 l 1
 120 0 l 1
 0 0 l 1
EndSplineSet
EndChar

StartChar: Atilde
Encoding: 195 195 88
Width: 780
VWidth: 1024
Flags: W
HStem: 0 21G<0 120 600 720> 300 120<120 600> 600 120<120 600>
VStem: 0 120<0 300 420 600> 600 120<0 300 420 600>
LayerCount: 2
Fore
SplineSet
120 420 m 1
 600 420 l 1
 600 600 l 1
 120 600 l 1
 120 420 l 1
0 0 m 1
 0 720 l 1
 720 720 l 1
 720 0 l 1
 600 0 l 1
 600 300 l 1
 120 300 l 1
 120 0 l 1
 0 0 l 1
EndSplineSet
EndChar

StartChar: Adieresis
Encoding: 196 196 89
Width: 780
VWidth: 1024
Flags: W
HStem: 0 21G<0 120 600 720> 300 120<120 600> 600 120<120 600>
VStem: 0 120<0 300 420 600> 600 120<0 300 420 600>
LayerCount: 2
Fore
SplineSet
120 420 m 1
 600 420 l 1
 600 600 l 1
 120 600 l 1
 120 420 l 1
0 0 m 1
 0 720 l 1
 720 720 l 1
 720 0 l 1
 600 0 l 1
 600 300 l 1
 120 300 l 1
 120 0 l 1
 0 0 l 1
EndSplineSet
EndChar

StartChar: Aring
Encoding: 197 197 90
Width: 780
VWidth: 1024
Flags: W
HStem: 0 21G<0 120 600 720> 300 120<120 600> 600 120<120 600>
VStem: 0 120<0 300 420 600> 600 120<0 300 420 600>
LayerCount: 2
Fore
SplineSet
120 420 m 1
 600 420 l 1
 600 600 l 1
 120 600 l 1
 120 420 l 1
0 0 m 1
 0 720 l 1
 720 720 l 1
 720 0 l 1
 600 0 l 1
 600 300 l 1
 120 300 l 1
 120 0 l 1
 0 0 l 1
EndSplineSet
EndChar

StartChar: agrave
Encoding: 224 224 91
Width: 780
VWidth: 1024
Flags: W
HStem: 0 21G<0 120 600 720> 300 120<120 600> 600 120<120 600>
VStem: 0 120<0 300 420 600> 600 120<0 300 420 600>
LayerCount: 2
Fore
SplineSet
120 420 m 1
 600 420 l 1
 600 600 l 1
 120 600 l 1
 120 420 l 1
0 0 m 1
 0 720 l 1
 720 720 l 1
 720 0 l 1
 600 0 l 1
 600 300 l 1
 120 300 l 1
 120 0 l 1
 0 0 l 1
EndSplineSet
EndChar

StartChar: aacute
Encoding: 225 225 92
Width: 780
VWidth: 1024
Flags: W
HStem: 0 21G<0 120 600 720> 300 120<120 600> 600 120<120 600>
VStem: 0 120<0 300 420 600> 600 120<0 300 420 600>
LayerCount: 2
Fore
SplineSet
120 420 m 1
 600 420 l 1
 600 600 l 1
 120 600 l 1
 120 420 l 1
0 0 m 1
 0 720 l 1
 720 720 l 1
 720 0 l 1
 600 0 l 1
 600 300 l 1
 120 300 l 1
 120 0 l 1
 0 0 l 1
EndSplineSet
EndChar

StartChar: acircumflex
Encoding: 226 226 93
Width: 780
VWidth: 1024
Flags: W
HStem: 0 21G<0 120 600 720> 300 120<120 600> 600 120<120 600>
VStem: 0 120<0 300 420 600> 600 120<0 300 420 600>
LayerCount: 2
Fore
SplineSet
120 420 m 1
 600 420 l 1
 600 600 l 1
 120 600 l 1
 120 420 l 1
0 0 m 1
 0 720 l 1
 720 720 l 1
 720 0 l 1
 600 0 l 1
 600 300 l 1
 120 300 l 1
 120 0 l 1
 0 0 l 1
EndSplineSet
EndChar

StartChar: atilde
Encoding: 227 227 94
Width: 780
VWidth: 1024
Flags: W
HStem: 0 21G<0 120 600 720> 300 120<120 600> 600 120<120 600>
VStem: 0 120<0 300 420 600> 600 120<0 300 420 600>
LayerCount: 2
Fore
SplineSet
120 420 m 1
 600 420 l 1
 600 600 l 1
 120 600 l 1
 120 420 l 1
0 0 m 1
 0 720 l 1
 720 720 l 1
 720 0 l 1
 600 0 l 1
 600 300 l 1
 120 300 l 1
 120 0 l 1
 0 0 l 1
EndSplineSet
EndChar

StartChar: adieresis
Encoding: 228 228 95
Width: 780
VWidth: 1024
Flags: W
HStem: 0 21G<0 120 600 720> 300 120<120 600> 600 120<120 600>
VStem: 0 120<0 300 420 600> 600 120<0 300 420 600>
LayerCount: 2
Fore
SplineSet
120 420 m 1
 600 420 l 1
 600 600 l 1
 120 600 l 1
 120 420 l 1
0 0 m 1
 0 720 l 1
 720 720 l 1
 720 0 l 1
 600 0 l 1
 600 300 l 1
 120 300 l 1
 120 0 l 1
 0 0 l 1
EndSplineSet
EndChar

StartChar: aring
Encoding: 229 229 96
Width: 780
VWidth: 1024
Flags: W
HStem: 0 21G<0 120 600 720> 300 120<120 600> 600 120<120 600>
VStem: 0 120<0 300 420 600> 600 120<0 300 420 600>
LayerCount: 2
Fore
SplineSet
120 420 m 1
 600 420 l 1
 600 600 l 1
 120 600 l 1
 120 420 l 1
0 0 m 1
 0 720 l 1
 720 720 l 1
 720 0 l 1
 600 0 l 1
 600 300 l 1
 120 300 l 1
 120 0 l 1
 0 0 l 1
EndSplineSet
EndChar

StartChar: backslash
Encoding: 92 92 97
Width: 780
VWidth: 1024
Flags: W
HStem: 0 120<600 720> 120 120<480 600> 240 120<360 480> 360 120<240 360> 480 120<120 240> 600 120<0 120>
VStem: 0 120<600 720> 120 120<480 600> 240 120<360 480> 360 120<240 360> 480 120<120 240> 600 120<0 120>
LayerCount: 2
Fore
SplineSet
0 600 m 1x06
 0 720 l 1
 120 720 l 1x06
 120 600 l 1x0a
 0 600 l 1x06
120 480 m 1x09
 120 600 l 1x0a
 240 600 l 1x09
 240 480 l 1x11
 120 480 l 1x09
240 360 m 1x1080
 240 480 l 1x11
 360 480 l 1x1080
 360 360 l 1x2080
 240 360 l 1x1080
360 240 m 1x2040
 360 360 l 1x2080
 480 360 l 1x2040
 480 240 l 1x4040
 360 240 l 1x2040
480 120 m 1x4020
 480 240 l 1x4040
 600 240 l 1x4020
 600 120 l 1x8020
 480 120 l 1x4020
600 0 m 1x8010
 600 120 l 1x8020
 720 120 l 1
 720 0 l 1
 600 0 l 1x8010
EndSplineSet
EndChar

StartChar: bar
Encoding: 124 124 98
Width: 180
VWidth: 1024
Flags: W
VStem: 0 120<-120 840>
LayerCount: 2
Fore
SplineSet
0 -120 m 1
 0 840 l 1
 120 840 l 1
 120 -120 l 1
 0 -120 l 1
EndSplineSet
EndChar

StartChar: asterisk
Encoding: 42 42 99
Width: 180
VWidth: 1024
Flags: W
HStem: 600 120<0 120>
VStem: 0 120<600 720>
LayerCount: 2
Fore
SplineSet
0 600 m 1
 0 720 l 1
 120 720 l 1
 120 600 l 1
 0 600 l 1
EndSplineSet
EndChar

StartChar: quotedbl
Encoding: 34 34 100
Width: 360
VWidth: 1024
Flags: W
HStem: 480 240<0 120 180 300>
VStem: 0 120<480 720> 180 120<480 720>
LayerCount: 2
Fore
SplineSet
180 480 m 1
 180 720 l 1
 300 720 l 1
 300 480 l 1
 180 480 l 1
0 480 m 1
 0 720 l 1
 120 720 l 1
 120 480 l 1
 0 480 l 1
EndSplineSet
EndChar

StartChar: AE
Encoding: 198 198 101
Width: 1380
VWidth: 1024
Flags: W
HStem: 0 120<720 1320> 300 120<120 600 720 1320> 600 120<120 600 720 1320>
VStem: 0 120<0 300 420 600> 600 120<120 300 420 600>
CounterMasks: 1 e0
LayerCount: 2
Fore
SplineSet
0 0 m 1
 0 720 l 1
 1320 720 l 1
 1320 600 l 1
 720 600 l 1
 720 420 l 1
 1320 420 l 1
 1320 300 l 1
 720 300 l 1
 720 120 l 1
 1320 120 l 1
 1320 0 l 1
 600 0 l 1
 600 300 l 1
 120 300 l 1
 120 0 l 1
 0 0 l 1
120 420 m 1
 600 420 l 1
 600 600 l 1
 120 600 l 1
 120 420 l 1
EndSplineSet
EndChar

StartChar: ae
Encoding: 230 230 102
Width: 1380
VWidth: 1024
Flags: W
HStem: 0 120<720 1320> 300 120<120 600 720 1320> 600 120<120 600 720 1320>
VStem: 0 120<0 300 420 600> 600 120<120 300 420 600>
CounterMasks: 1 e0
LayerCount: 2
Fore
SplineSet
0 0 m 1
 0 720 l 1
 1320 720 l 1
 1320 600 l 1
 720 600 l 1
 720 420 l 1
 1320 420 l 1
 1320 300 l 1
 720 300 l 1
 720 120 l 1
 1320 120 l 1
 1320 0 l 1
 600 0 l 1
 600 300 l 1
 120 300 l 1
 120 0 l 1
 0 0 l 1
120 420 m 1
 600 420 l 1
 600 600 l 1
 120 600 l 1
 120 420 l 1
EndSplineSet
EndChar

StartChar: OE
Encoding: 338 338 103
Width: 1380
VWidth: 1024
Flags: W
HStem: 0 120<120 600 720 1320> 300 120<720 1320> 600 120<120 600 720 1320>
VStem: 0 120<120 600> 600 120<120 300 420 600>
CounterMasks: 1 e0
LayerCount: 2
Fore
SplineSet
0 0 m 1
 0 720 l 1
 1320 720 l 1
 1320 600 l 1
 720 600 l 1
 720 420 l 1
 1320 420 l 1
 1320 300 l 1
 720 300 l 1
 720 120 l 1
 1320 120 l 1
 1320 0 l 1
 0 0 l 1
120 120 m 1
 600 120 l 1
 600 600 l 1
 120 600 l 1
 120 120 l 1
EndSplineSet
EndChar

StartChar: oe
Encoding: 339 339 104
Width: 1380
VWidth: 1024
Flags: W
HStem: 0 120<120 600 720 1320> 300 120<720 1320> 600 120<120 600 720 1320>
VStem: 0 120<120 600> 600 120<120 300 420 600>
CounterMasks: 1 e0
LayerCount: 2
Fore
SplineSet
0 0 m 1
 0 720 l 1
 1320 720 l 1
 1320 600 l 1
 720 600 l 1
 720 420 l 1
 1320 420 l 1
 1320 300 l 1
 720 300 l 1
 720 120 l 1
 1320 120 l 1
 1320 0 l 1
 0 0 l 1
120 120 m 1
 600 120 l 1
 600 600 l 1
 120 600 l 1
 120 120 l 1
EndSplineSet
EndChar

StartChar: Ograve
Encoding: 210 210 105
Width: 780
VWidth: 1024
Flags: W
HStem: 0 120<120 600> 600 120<120 600>
VStem: 0 120<120 600> 600 120<120 600>
LayerCount: 2
Fore
SplineSet
120 120 m 1
 600 120 l 1
 600 600 l 1
 120 600 l 1
 120 120 l 1
0 0 m 1
 0 720 l 1
 720 720 l 1
 720 0 l 1
 0 0 l 1
EndSplineSet
EndChar

StartChar: Oacute
Encoding: 211 211 106
Width: 780
VWidth: 1024
Flags: W
HStem: 0 120<120 600> 600 120<120 600>
VStem: 0 120<120 600> 600 120<120 600>
LayerCount: 2
Fore
SplineSet
120 120 m 1
 600 120 l 1
 600 600 l 1
 120 600 l 1
 120 120 l 1
0 0 m 1
 0 720 l 1
 720 720 l 1
 720 0 l 1
 0 0 l 1
EndSplineSet
EndChar

StartChar: Ocircumflex
Encoding: 212 212 107
Width: 780
VWidth: 1024
Flags: W
HStem: 0 120<120 600> 600 120<120 600>
VStem: 0 120<120 600> 600 120<120 600>
LayerCount: 2
Fore
SplineSet
120 120 m 1
 600 120 l 1
 600 600 l 1
 120 600 l 1
 120 120 l 1
0 0 m 1
 0 720 l 1
 720 720 l 1
 720 0 l 1
 0 0 l 1
EndSplineSet
EndChar

StartChar: Otilde
Encoding: 213 213 108
Width: 780
VWidth: 1024
Flags: W
HStem: 0 120<120 600> 600 120<120 600>
VStem: 0 120<120 600> 600 120<120 600>
LayerCount: 2
Fore
SplineSet
120 120 m 1
 600 120 l 1
 600 600 l 1
 120 600 l 1
 120 120 l 1
0 0 m 1
 0 720 l 1
 720 720 l 1
 720 0 l 1
 0 0 l 1
EndSplineSet
EndChar

StartChar: Odieresis
Encoding: 214 214 109
Width: 780
VWidth: 1024
Flags: W
HStem: 0 120<120 600> 600 120<120 600>
VStem: 0 120<120 600> 600 120<120 600>
LayerCount: 2
Fore
SplineSet
120 120 m 1
 600 120 l 1
 600 600 l 1
 120 600 l 1
 120 120 l 1
0 0 m 1
 0 720 l 1
 720 720 l 1
 720 0 l 1
 0 0 l 1
EndSplineSet
EndChar

StartChar: Oslash
Encoding: 216 216 110
Width: 780
VWidth: 1024
Flags: W
HStem: 0 120<240 600> 240 120<240 360> 360 120<360 480> 600 120<120 480>
VStem: 0 120<240 600> 240 120<240 360> 360 120<360 480> 600 120<120 480>
LayerCount: 2
Fore
SplineSet
360 360 m 1xdd
 360 480 l 1
 480 480 l 1
 480 360 l 1xbb
 360 360 l 1xdd
240 240 m 1xdd
 240 360 l 1
 360 360 l 1
 360 240 l 1
 240 240 l 1xdd
120 240 m 1
 240 240 l 1
 240 120 l 1xdd
 600 120 l 1
 600 480 l 1
 480 480 l 1
 480 600 l 1xbb
 120 600 l 1
 120 240 l 1
0 0 m 1
 0 720 l 1
 720 720 l 1
 720 0 l 1
 0 0 l 1
EndSplineSet
EndChar

StartChar: Ntilde
Encoding: 209 209 111
Width: 780
VWidth: 1024
Flags: W
HStem: 0 21G<0 120 600 720> 600 120<120 600>
VStem: 0 120<0 600> 600 120<0 600>
LayerCount: 2
Fore
SplineSet
0 0 m 1
 0 720 l 1
 720 720 l 1
 720 0 l 1
 600 0 l 1
 600 600 l 1
 120 600 l 1
 120 0 l 1
 0 0 l 1
EndSplineSet
EndChar

StartChar: Igrave
Encoding: 204 204 112
Width: 180
VWidth: 1024
Flags: W
HStem: 0 21G<0 120> 700 20G<0 120>
VStem: 0 120<0 720>
LayerCount: 2
Fore
SplineSet
0 0 m 1
 0 720 l 1
 120 720 l 1
 120 0 l 1
 0 0 l 1
EndSplineSet
EndChar

StartChar: Iacute
Encoding: 205 205 113
Width: 180
VWidth: 1024
Flags: W
HStem: 0 21G<0 120> 700 20G<0 120>
VStem: 0 120<0 720>
LayerCount: 2
Fore
SplineSet
0 0 m 1
 0 720 l 1
 120 720 l 1
 120 0 l 1
 0 0 l 1
EndSplineSet
EndChar

StartChar: Icircumflex
Encoding: 206 206 114
Width: 180
VWidth: 1024
Flags: W
HStem: 0 21G<0 120> 700 20G<0 120>
VStem: 0 120<0 720>
LayerCount: 2
Fore
SplineSet
0 0 m 1
 0 720 l 1
 120 720 l 1
 120 0 l 1
 0 0 l 1
EndSplineSet
EndChar

StartChar: Idieresis
Encoding: 207 207 115
Width: 180
VWidth: 1024
Flags: W
HStem: 0 21G<0 120> 700 20G<0 120>
VStem: 0 120<0 720>
LayerCount: 2
Fore
SplineSet
0 0 m 1
 0 720 l 1
 120 720 l 1
 120 0 l 1
 0 0 l 1
EndSplineSet
EndChar

StartChar: germandbls
Encoding: 223 223 116
Width: 780
VWidth: 1024
Flags: W
HStem: 0 120<240 600> 300 120<240 600> 600 120<120 600>
VStem: 0 120<0 600> 600 120<120 300 420 600>
CounterMasks: 1 e0
LayerCount: 2
Fore
SplineSet
0 0 m 1
 0 720 l 1
 720 720 l 1
 720 0 l 1
 240 0 l 1
 240 120 l 1
 600 120 l 1
 600 300 l 1
 240 300 l 1
 240 420 l 1
 600 420 l 1
 600 600 l 1
 120 600 l 1
 120 0 l 1
 0 0 l 1
EndSplineSet
EndChar

StartChar: Ugrave
Encoding: 217 217 117
Width: 780
VWidth: 1024
Flags: W
HStem: 0 120<120 600> 700 20G<0 120 600 720>
VStem: 0 120<120 720> 600 120<120 720>
LayerCount: 2
Fore
SplineSet
0 0 m 1
 0 720 l 1
 120 720 l 1
 120 120 l 1
 600 120 l 1
 600 720 l 1
 720 720 l 1
 720 0 l 1
 0 0 l 1
EndSplineSet
EndChar

StartChar: Uacute
Encoding: 218 218 118
Width: 780
VWidth: 1024
Flags: W
HStem: 0 120<120 600> 700 20G<0 120 600 720>
VStem: 0 120<120 720> 600 120<120 720>
LayerCount: 2
Fore
SplineSet
0 0 m 1
 0 720 l 1
 120 720 l 1
 120 120 l 1
 600 120 l 1
 600 720 l 1
 720 720 l 1
 720 0 l 1
 0 0 l 1
EndSplineSet
EndChar

StartChar: Ucircumflex
Encoding: 219 219 119
Width: 780
VWidth: 1024
Flags: W
HStem: 0 120<120 600> 700 20G<0 120 600 720>
VStem: 0 120<120 720> 600 120<120 720>
LayerCount: 2
Fore
SplineSet
0 0 m 1
 0 720 l 1
 120 720 l 1
 120 120 l 1
 600 120 l 1
 600 720 l 1
 720 720 l 1
 720 0 l 1
 0 0 l 1
EndSplineSet
EndChar

StartChar: Udieresis
Encoding: 220 220 120
Width: 780
VWidth: 1024
Flags: W
HStem: 0 120<120 600> 700 20G<0 120 600 720>
VStem: 0 120<120 720> 600 120<120 720>
LayerCount: 2
Fore
SplineSet
0 0 m 1
 0 720 l 1
 120 720 l 1
 120 120 l 1
 600 120 l 1
 600 720 l 1
 720 720 l 1
 720 0 l 1
 0 0 l 1
EndSplineSet
EndChar

StartChar: igrave
Encoding: 236 236 121
Width: 180
VWidth: 1024
Flags: W
HStem: 0 21G<0 120> 700 20G<0 120>
VStem: 0 120<0 720>
LayerCount: 2
Fore
SplineSet
0 0 m 1
 0 720 l 1
 120 720 l 1
 120 0 l 1
 0 0 l 1
EndSplineSet
EndChar

StartChar: iacute
Encoding: 237 237 122
Width: 180
VWidth: 1024
Flags: W
HStem: 0 21G<0 120> 700 20G<0 120>
VStem: 0 120<0 720>
LayerCount: 2
Fore
SplineSet
0 0 m 1
 0 720 l 1
 120 720 l 1
 120 0 l 1
 0 0 l 1
EndSplineSet
EndChar

StartChar: icircumflex
Encoding: 238 238 123
Width: 180
VWidth: 1024
Flags: W
HStem: 0 21G<0 120> 700 20G<0 120>
VStem: 0 120<0 720>
LayerCount: 2
Fore
SplineSet
0 0 m 1
 0 720 l 1
 120 720 l 1
 120 0 l 1
 0 0 l 1
EndSplineSet
EndChar

StartChar: idieresis
Encoding: 239 239 124
Width: 180
VWidth: 1024
Flags: W
HStem: 0 21G<0 120> 700 20G<0 120>
VStem: 0 120<0 720>
LayerCount: 2
Fore
SplineSet
0 0 m 1
 0 720 l 1
 120 720 l 1
 120 0 l 1
 0 0 l 1
EndSplineSet
EndChar

StartChar: ograve
Encoding: 242 242 125
Width: 780
VWidth: 1024
Flags: W
HStem: 0 120<120 600> 600 120<120 600>
VStem: 0 120<120 600> 600 120<120 600>
LayerCount: 2
Fore
SplineSet
120 120 m 1
 600 120 l 1
 600 600 l 1
 120 600 l 1
 120 120 l 1
0 0 m 1
 0 720 l 1
 720 720 l 1
 720 0 l 1
 0 0 l 1
EndSplineSet
EndChar

StartChar: oacute
Encoding: 243 243 126
Width: 780
VWidth: 1024
Flags: W
HStem: 0 120<120 600> 600 120<120 600>
VStem: 0 120<120 600> 600 120<120 600>
LayerCount: 2
Fore
SplineSet
120 120 m 1
 600 120 l 1
 600 600 l 1
 120 600 l 1
 120 120 l 1
0 0 m 1
 0 720 l 1
 720 720 l 1
 720 0 l 1
 0 0 l 1
EndSplineSet
EndChar

StartChar: ocircumflex
Encoding: 244 244 127
Width: 780
VWidth: 1024
Flags: W
HStem: 0 120<120 600> 600 120<120 600>
VStem: 0 120<120 600> 600 120<120 600>
LayerCount: 2
Fore
SplineSet
120 120 m 1
 600 120 l 1
 600 600 l 1
 120 600 l 1
 120 120 l 1
0 0 m 1
 0 720 l 1
 720 720 l 1
 720 0 l 1
 0 0 l 1
EndSplineSet
EndChar

StartChar: otilde
Encoding: 245 245 128
Width: 780
VWidth: 1024
Flags: W
HStem: 0 120<120 600> 600 120<120 600>
VStem: 0 120<120 600> 600 120<120 600>
LayerCount: 2
Fore
SplineSet
120 120 m 1
 600 120 l 1
 600 600 l 1
 120 600 l 1
 120 120 l 1
0 0 m 1
 0 720 l 1
 720 720 l 1
 720 0 l 1
 0 0 l 1
EndSplineSet
EndChar

StartChar: odieresis
Encoding: 246 246 129
Width: 780
VWidth: 1024
Flags: W
HStem: 0 120<120 600> 600 120<120 600>
VStem: 0 120<120 600> 600 120<120 600>
LayerCount: 2
Fore
SplineSet
120 120 m 1
 600 120 l 1
 600 600 l 1
 120 600 l 1
 120 120 l 1
0 0 m 1
 0 720 l 1
 720 720 l 1
 720 0 l 1
 0 0 l 1
EndSplineSet
EndChar

StartChar: oslash
Encoding: 248 248 130
Width: 780
VWidth: 1024
Flags: W
HStem: 0 120<240 600> 240 120<240 360> 360 120<360 480> 600 120<120 480>
VStem: 0 120<240 600> 240 120<240 360> 360 120<360 480> 600 120<120 480>
LayerCount: 2
Fore
SplineSet
360 360 m 1xdd
 360 480 l 1
 480 480 l 1
 480 360 l 1xbb
 360 360 l 1xdd
240 240 m 1xdd
 240 360 l 1
 360 360 l 1
 360 240 l 1
 240 240 l 1xdd
120 240 m 1
 240 240 l 1
 240 120 l 1xdd
 600 120 l 1
 600 480 l 1
 480 480 l 1
 480 600 l 1xbb
 120 600 l 1
 120 240 l 1
0 0 m 1
 0 720 l 1
 720 720 l 1
 720 0 l 1
 0 0 l 1
EndSplineSet
EndChar

StartChar: ugrave
Encoding: 249 249 131
Width: 780
VWidth: 1024
Flags: W
HStem: 0 120<120 600> 700 20G<0 120 600 720>
VStem: 0 120<120 720> 600 120<120 720>
LayerCount: 2
Fore
SplineSet
0 0 m 1
 0 720 l 1
 120 720 l 1
 120 120 l 1
 600 120 l 1
 600 720 l 1
 720 720 l 1
 720 0 l 1
 0 0 l 1
EndSplineSet
EndChar

StartChar: uacute
Encoding: 250 250 132
Width: 780
VWidth: 1024
Flags: W
HStem: 0 120<120 600> 700 20G<0 120 600 720>
VStem: 0 120<120 720> 600 120<120 720>
LayerCount: 2
Fore
SplineSet
0 0 m 1
 0 720 l 1
 120 720 l 1
 120 120 l 1
 600 120 l 1
 600 720 l 1
 720 720 l 1
 720 0 l 1
 0 0 l 1
EndSplineSet
EndChar

StartChar: ucircumflex
Encoding: 251 251 133
Width: 780
VWidth: 1024
Flags: W
HStem: 0 120<120 600> 700 20G<0 120 600 720>
VStem: 0 120<120 720> 600 120<120 720>
LayerCount: 2
Fore
SplineSet
0 0 m 1
 0 720 l 1
 120 720 l 1
 120 120 l 1
 600 120 l 1
 600 720 l 1
 720 720 l 1
 720 0 l 1
 0 0 l 1
EndSplineSet
EndChar

StartChar: udieresis
Encoding: 252 252 134
Width: 780
VWidth: 1024
Flags: W
HStem: 0 120<120 600> 700 20G<0 120 600 720>
VStem: 0 120<120 720> 600 120<120 720>
LayerCount: 2
Fore
SplineSet
0 0 m 1
 0 720 l 1
 120 720 l 1
 120 120 l 1
 600 120 l 1
 600 720 l 1
 720 720 l 1
 720 0 l 1
 0 0 l 1
EndSplineSet
EndChar

StartChar: ntilde
Encoding: 241 241 135
Width: 780
VWidth: 1024
Flags: W
HStem: 0 21G<0 120 600 720> 600 120<120 600>
VStem: 0 120<0 600> 600 120<0 600>
LayerCount: 2
Fore
SplineSet
0 0 m 1
 0 720 l 1
 720 720 l 1
 720 0 l 1
 600 0 l 1
 600 600 l 1
 120 600 l 1
 120 0 l 1
 0 0 l 1
EndSplineSet
EndChar

StartChar: Y
Encoding: 89 89 136
Width: 780
VWidth: 1024
Flags: W
HStem: 0 21G<300 420> 360 120<120 300 420 600> 700 20G<0 120 600 720>
VStem: 0 120<480 720> 300 120<0 360> 600 120<480 720>
CounterMasks: 1 1c
LayerCount: 2
Fore
SplineSet
0 360 m 1
 0 720 l 1
 120 720 l 1
 120 480 l 1
 600 480 l 1
 600 720 l 1
 720 720 l 1
 720 360 l 1
 420 360 l 1
 420 0 l 1
 300 0 l 1
 300 360 l 1
 0 360 l 1
EndSplineSet
EndChar

StartChar: K
Encoding: 75 75 137
Width: 780
VWidth: 1024
Flags: W
HStem: 0 21G<0 120 600 720> 300 120<120 480> 700 20G<0 120 480 600>
VStem: 0 120<0 300 420 720> 480 120<420 720> 600 120<0 300>
LayerCount: 2
Fore
SplineSet
0 0 m 1xf4
 0 720 l 1
 120 720 l 1
 120 420 l 1
 480 420 l 1
 480 720 l 1
 600 720 l 1
 600 420 l 1xf8
 720 420 l 1
 720 0 l 1
 600 0 l 1
 600 300 l 1
 120 300 l 1
 120 0 l 1
 0 0 l 1xf4
EndSplineSet
EndChar

StartChar: k
Encoding: 107 107 138
Width: 780
VWidth: 1024
Flags: W
HStem: 0 21G<0 120 600 720> 300 120<120 480> 700 20G<0 120 480 600>
VStem: 0 120<0 300 420 720> 480 120<420 720> 600 120<0 300>
LayerCount: 2
Fore
SplineSet
0 0 m 1xf4
 0 720 l 1
 120 720 l 1
 120 420 l 1
 480 420 l 1
 480 720 l 1
 600 720 l 1
 600 420 l 1xf8
 720 420 l 1
 720 0 l 1
 600 0 l 1
 600 300 l 1
 120 300 l 1
 120 0 l 1
 0 0 l 1xf4
EndSplineSet
EndChar

StartChar: y
Encoding: 121 121 139
Width: 780
VWidth: 1024
Flags: W
HStem: 0 21G<300 420> 360 120<120 300 420 600> 700 20G<0 120 600 720>
VStem: 0 120<480 720> 300 120<0 360> 600 120<480 720>
CounterMasks: 1 1c
LayerCount: 2
Fore
SplineSet
0 360 m 1
 0 720 l 1
 120 720 l 1
 120 480 l 1
 600 480 l 1
 600 720 l 1
 720 720 l 1
 720 360 l 1
 420 360 l 1
 420 0 l 1
 300 0 l 1
 300 360 l 1
 0 360 l 1
EndSplineSet
EndChar

StartChar: X
Encoding: 88 88 140
Width: 780
VWidth: 1024
Flags: W
HStem: 0 21G<0 120 600 720> 360 120<120 600> 480 240<0 120 600 720>
VStem: 0 120<0 360 480 720> 600 120<0 360 480 720>
LayerCount: 2
Fore
SplineSet
0 480 m 1xb8
 0 720 l 1
 120 720 l 1xb8
 120 480 l 1xd8
 0 480 l 1xb8
600 480 m 1xd8
 600 720 l 1
 720 720 l 1
 720 480 l 1xb8
 600 480 l 1xd8
600 0 m 1
 600 360 l 1
 720 360 l 1xd8
 720 0 l 1
 600 0 l 1
0 0 m 1
 0 360 l 1
 120 360 l 1
 120 0 l 1
 0 0 l 1
120 360 m 1
 120 480 l 1
 600 480 l 1
 600 360 l 1
 120 360 l 1
EndSplineSet
EndChar

StartChar: x
Encoding: 120 120 141
Width: 780
VWidth: 1024
Flags: W
HStem: 0 21G<0 120 600 720> 360 120<120 600> 480 240<0 120 600 720>
VStem: 0 120<0 360 480 720> 600 120<0 360 480 720>
LayerCount: 2
Fore
SplineSet
0 480 m 1xb8
 0 720 l 1
 120 720 l 1xb8
 120 480 l 1xd8
 0 480 l 1xb8
600 480 m 1xd8
 600 720 l 1
 720 720 l 1
 720 480 l 1xb8
 600 480 l 1xd8
600 0 m 1
 600 360 l 1
 720 360 l 1xd8
 720 0 l 1
 600 0 l 1
0 0 m 1
 0 360 l 1
 120 360 l 1
 120 0 l 1
 0 0 l 1
120 360 m 1
 120 480 l 1
 600 480 l 1
 600 360 l 1
 120 360 l 1
EndSplineSet
EndChar

StartChar: numbersign
Encoding: 35 35 142
Width: 780
VWidth: 1024
Flags: W
HStem: 0 21G<180 300 420 540> 180 120<0 180 300 420 540 720> 420 120<0 180 300 420 540 720> 700 20G<180 300 420 540>
VStem: 180 120<0 180 300 420 540 720> 420 120<0 180 300 420 540 720>
LayerCount: 2
Fore
SplineSet
0 180 m 1
 0 300 l 1
 180 300 l 1
 180 420 l 1
 0 420 l 1
 0 540 l 1
 180 540 l 1
 180 720 l 1
 300 720 l 1
 300 540 l 1
 420 540 l 1
 420 720 l 1
 540 720 l 1
 540 540 l 1
 720 540 l 1
 720 420 l 1
 540 420 l 1
 540 300 l 1
 720 300 l 1
 720 180 l 1
 540 180 l 1
 540 0 l 1
 420 0 l 1
 420 180 l 1
 300 180 l 1
 300 0 l 1
 180 0 l 1
 180 180 l 1
 0 180 l 1
300 300 m 1
 420 300 l 1
 420 420 l 1
 300 420 l 1
 300 300 l 1
EndSplineSet
EndChar

StartChar: question
Encoding: 63 63 143
Width: 660
VWidth: 1024
Flags: W
HStem: 0 120<120 240> 300 120<120 480> 600 120<0 480>
VStem: 120 120<0 120> 480 120<420 600>
CounterMasks: 1 e0
LayerCount: 2
Fore
SplineSet
120 0 m 1
 120 120 l 1
 240 120 l 1
 240 0 l 1
 120 0 l 1
0 600 m 1
 0 720 l 1
 600 720 l 1
 600 300 l 1
 120 300 l 1
 120 420 l 1
 480 420 l 1
 480 600 l 1
 0 600 l 1
EndSplineSet
EndChar

StartChar: questiondown
Encoding: 191 191 144
Width: 660
VWidth: 1024
Flags: W
HStem: 0 120<120 600> 300 120<120 480> 600 120<360 480>
VStem: 0 120<120 300> 360 120<600 720>
CounterMasks: 1 e0
LayerCount: 2
Fore
SplineSet
360 600 m 1
 360 720 l 1
 480 720 l 1
 480 600 l 1
 360 600 l 1
0 0 m 1
 0 420 l 1
 480 420 l 1
 480 300 l 1
 120 300 l 1
 120 120 l 1
 600 120 l 1
 600 0 l 1
 0 0 l 1
EndSplineSet
EndChar

StartChar: Z
Encoding: 90 90 145
Width: 780
VWidth: 1024
Flags: W
HStem: 0 120<0 120 240 720> 240 120<240 360> 360 120<360 480> 600 120<0 480 600 720>
VStem: 240 120<240 360> 360 120<360 480>
LayerCount: 2
Fore
SplineSet
0 0 m 1xd8
 0 120 l 1
 120 120 l 1
 120 240 l 1
 240 240 l 1
 240 120 l 1
 720 120 l 1
 720 0 l 1
 0 0 l 1xd8
0 600 m 1
 0 720 l 1
 720 720 l 1
 720 600 l 1
 600 600 l 1
 600 480 l 1
 480 480 l 1
 480 600 l 1xb4
 0 600 l 1
360 360 m 1xd8
 360 480 l 1
 480 480 l 1
 480 360 l 1xb4
 360 360 l 1xd8
240 240 m 1xd8
 240 360 l 1
 360 360 l 1
 360 240 l 1
 240 240 l 1xd8
EndSplineSet
EndChar

StartChar: z
Encoding: 122 122 146
Width: 780
VWidth: 1024
Flags: W
HStem: 0 120<0 120 240 720> 240 120<240 360> 360 120<360 480> 600 120<0 480 600 720>
VStem: 240 120<240 360> 360 120<360 480>
LayerCount: 2
Fore
SplineSet
0 0 m 1xd8
 0 120 l 1
 120 120 l 1
 120 240 l 1
 240 240 l 1
 240 120 l 1
 720 120 l 1
 720 0 l 1
 0 0 l 1xd8
0 600 m 1
 0 720 l 1
 720 720 l 1
 720 600 l 1
 600 600 l 1
 600 480 l 1
 480 480 l 1
 480 600 l 1xb4
 0 600 l 1
360 360 m 1xd8
 360 480 l 1
 480 480 l 1
 480 360 l 1xb4
 360 360 l 1xd8
240 240 m 1xd8
 240 360 l 1
 360 360 l 1
 360 240 l 1
 240 240 l 1xd8
EndSplineSet
EndChar

StartChar: Yacute
Encoding: 221 221 147
Width: 780
VWidth: 1024
Flags: W
HStem: 0 21G<300 420> 360 120<120 300 420 600> 700 20G<0 120 600 720>
VStem: 0 120<480 720> 300 120<0 360> 600 120<480 720>
LayerCount: 2
Fore
SplineSet
0 360 m 1
 0 720 l 1
 120 720 l 1
 120 480 l 1
 600 480 l 1
 600 720 l 1
 720 720 l 1
 720 360 l 1
 420 360 l 1
 420 0 l 1
 300 0 l 1
 300 360 l 1
 0 360 l 1
EndSplineSet
EndChar

StartChar: yacute
Encoding: 253 253 148
Width: 780
VWidth: 1024
Flags: W
HStem: 0 21G<300 420> 360 120<120 300 420 600> 700 20G<0 120 600 720>
VStem: 0 120<480 720> 300 120<0 360> 600 120<480 720>
LayerCount: 2
Fore
SplineSet
0 360 m 1
 0 720 l 1
 120 720 l 1
 120 480 l 1
 600 480 l 1
 600 720 l 1
 720 720 l 1
 720 360 l 1
 420 360 l 1
 420 0 l 1
 300 0 l 1
 300 360 l 1
 0 360 l 1
EndSplineSet
EndChar

StartChar: ydieresis
Encoding: 255 255 149
Width: 780
VWidth: 1024
Flags: W
HStem: 0 21G<300 420> 360 120<120 300 420 600> 700 20G<0 120 600 720>
VStem: 0 120<480 720> 300 120<0 360> 600 120<480 720>
LayerCount: 2
Fore
SplineSet
0 360 m 1
 0 720 l 1
 120 720 l 1
 120 480 l 1
 600 480 l 1
 600 720 l 1
 720 720 l 1
 720 360 l 1
 420 360 l 1
 420 0 l 1
 300 0 l 1
 300 360 l 1
 0 360 l 1
EndSplineSet
EndChar

StartChar: Ydieresis
Encoding: 376 376 150
Width: 780
VWidth: 1024
Flags: W
HStem: 0 21G<300 420> 360 120<120 300 420 600> 700 20G<0 120 600 720>
VStem: 0 120<480 720> 300 120<0 360> 600 120<480 720>
LayerCount: 2
Fore
SplineSet
0 360 m 1
 0 720 l 1
 120 720 l 1
 120 480 l 1
 600 480 l 1
 600 720 l 1
 720 720 l 1
 720 360 l 1
 420 360 l 1
 420 0 l 1
 300 0 l 1
 300 360 l 1
 0 360 l 1
EndSplineSet
EndChar

StartChar: uniE000
Encoding: 57344 57344 151
Width: 390
VWidth: 1024
Flags: W
HStem: 0 21G<0 155> 700 20G<175 330>
VStem: 0 150<0 150> 180 150<570 720>
DStem2: 0 0 150 0 0.242536 0.970143<36.3803 742.159>
LayerCount: 2
Fore
SplineSet
0 0 m 1
 180 720 l 1
 330 720 l 1
 150 0 l 1
 0 0 l 1
EndSplineSet
EndChar

StartChar: uniE001
Encoding: 57345 57345 152
Width: 390
VWidth: 1024
Flags: W
HStem: 0 21G<175 330> 700 20G<0 155>
VStem: 0 150<570 720> 180 150<0 150>
DStem2: 150 720 0 720 0.242536 -0.970143<0 705.779>
LayerCount: 2
Fore
SplineSet
0 720 m 1
 150 720 l 1
 330 0 l 1
 180 0 l 1
 0 720 l 1
EndSplineSet
EndChar

StartChar: uniE002
Encoding: 57346 57346 153
Width: 920
VWidth: 1024
Flags: W
HStem: 0 143<286 429> 286 148<0 143 286 860> 577 143<286 429>
VStem: 143 143<143 286 434 577> 286 143<0 143 577 720>
LayerCount: 2
Fore
SplineSet
286 0 m 1xe8
 286 143 l 1xf0
 429 143 l 1
 429 0 l 1
 286 0 l 1xe8
0 286 m 1
 0 434 l 1
 143 434 l 1
 143 577 l 1
 286 577 l 1
 286 434 l 1
 860 434 l 1
 860 286 l 1
 286 286 l 1
 286 143 l 1
 143 143 l 1
 143 286 l 1
 0 286 l 1
286 577 m 1
 286 720 l 1
 429 720 l 1
 429 577 l 1xe8
 286 577 l 1
EndSplineSet
EndChar

StartChar: uniE003
Encoding: 57347 57347 154
Width: 920
VWidth: 1024
Flags: W
HStem: 0 143<431 574> 286 148<0 574 717 860> 577 143<431 574>
VStem: 431 143<0 143 577 720> 574 143<143 286 434 577>
LayerCount: 2
Fore
SplineSet
431 0 m 1xf0
 431 143 l 1
 574 143 l 1
 574 0 l 1
 431 0 l 1xf0
0 286 m 1
 0 434 l 1
 574 434 l 1xe8
 574 577 l 1xf0
 717 577 l 1
 717 434 l 1
 860 434 l 1
 860 286 l 1
 717 286 l 1
 717 143 l 1xe8
 574 143 l 1xf0
 574 286 l 1xe8
 0 286 l 1
431 577 m 1xf0
 431 720 l 1
 574 720 l 1
 574 577 l 1
 431 577 l 1xf0
EndSplineSet
EndChar

StartChar: uniE004
Encoding: 57348 57348 155
Width: 780
VWidth: 1024
Flags: W
HStem: 60 120<240 360> 300 120<0 120 240 720> 540 120<240 360>
VStem: 120 120<180 300 420 540> 240 120<60 180 540 660>
LayerCount: 2
Fore
SplineSet
240 60 m 1xe8
 240 180 l 1xf0
 360 180 l 1
 360 60 l 1
 240 60 l 1xe8
240 540 m 1
 240 660 l 1
 360 660 l 1
 360 540 l 1xe8
 240 540 l 1
0 300 m 1
 0 420 l 1
 120 420 l 1
 120 540 l 1
 240 540 l 1
 240 420 l 1
 720 420 l 1
 720 300 l 1
 240 300 l 1
 240 180 l 1
 120 180 l 1
 120 300 l 1xf0
 0 300 l 1
EndSplineSet
EndChar

StartChar: uniE005
Encoding: 57349 57349 156
Width: 780
VWidth: 1024
Flags: W
HStem: 60 120<360 480> 300 120<0 480 600 720> 540 120<360 480>
VStem: 360 120<60 180 540 660> 480 120<180 300 420 540>
LayerCount: 2
Fore
SplineSet
360 60 m 1xf0
 360 180 l 1
 480 180 l 1
 480 60 l 1
 360 60 l 1xf0
360 540 m 1
 360 660 l 1
 480 660 l 1
 480 540 l 1
 360 540 l 1
0 300 m 1
 0 420 l 1
 480 420 l 1xe8
 480 540 l 1xf0
 600 540 l 1
 600 420 l 1
 720 420 l 1
 720 300 l 1
 600 300 l 1
 600 180 l 1xe8
 480 180 l 1xf0
 480 300 l 1xe8
 0 300 l 1
EndSplineSet
EndChar

StartChar: uniE006
Encoding: 57350 57350 157
Width: 780
VWidth: 1024
Flags: W
HStem: 0 120<120 600> 600 120<120 600>
VStem: 0 120<120 600> 600 120<120 600>
LayerCount: 2
Fore
SplineSet
600 120 m 1
 600 600 l 1
 720 600 l 1
 720 120 l 1
 600 120 l 1
120 600 m 1
 120 720 l 1
 600 720 l 1
 600 600 l 1
 120 600 l 1
0 120 m 1
 0 600 l 1
 120 600 l 1
 120 120 l 1
 0 120 l 1
120 0 m 1
 120 120 l 1
 600 120 l 1
 600 0 l 1
 120 0 l 1
EndSplineSet
EndChar

StartChar: uniE007
Encoding: 57351 57351 158
Width: 780
VWidth: 1024
Flags: W
HStem: 0 120<120 720> 300 120<120 600> 600 120<0 600>
VStem: 0 120<120 300> 600 120<420 600>
LayerCount: 2
Fore
SplineSet
0 0 m 1
 0 420 l 1
 600 420 l 1
 600 600 l 1
 0 600 l 1
 0 720 l 1
 720 720 l 1
 720 300 l 1
 120 300 l 1
 120 120 l 1
 720 120 l 1
 720 0 l 1
 0 0 l 1
EndSplineSet
EndChar

StartChar: uniE008
Encoding: 57352 57352 159
Width: 780
VWidth: 1024
Flags: W
HStem: 0 120<120 600> 360 120<120 600> 700 20G<0 120>
VStem: 0 120<120 360 480 720> 600 120<120 360>
LayerCount: 2
Fore
SplineSet
120 0 m 1
 120 120 l 1
 600 120 l 1
 600 0 l 1
 120 0 l 1
600 120 m 1
 600 360 l 1
 720 360 l 1
 720 120 l 1
 600 120 l 1
0 120 m 1
 0 720 l 1
 120 720 l 1
 120 480 l 1
 600 480 l 1
 600 360 l 1
 120 360 l 1
 120 120 l 1
 0 120 l 1
EndSplineSet
EndChar

StartChar: uniE009
Encoding: 57353 57353 160
Width: 780
VWidth: 1024
Flags: W
HStem: 0 120<120 600> 360 120<120 600> 480 240<0 120 600 720> 600 120<120 600>
VStem: 0 120<120 360 480 600> 600 120<120 360 480 600>
LayerCount: 2
Fore
SplineSet
0 480 m 1xac
 0 720 l 1
 720 720 l 1
 720 480 l 1xac
 600 480 l 1
 600 600 l 9
 120 600 l 17
 120 480 l 1xdc
 0 480 l 1xac
0 0 m 1
 0 360 l 1
 120 360 l 1
 120 120 l 1
 600 120 l 1
 600 360 l 1
 720 360 l 1xcc
 720 0 l 1
 0 0 l 1
120 360 m 1
 120 480 l 1
 600 480 l 1
 600 360 l 1
 120 360 l 1
EndSplineSet
EndChar

StartChar: uniE00A
Encoding: 57354 57354 161
Width: 780
VWidth: 1024
Flags: W
HStem: 0 21G<600 720> 240 120<120 600> 600 120<120 600>
VStem: 0 120<360 600> 600 120<0 240 360 600>
LayerCount: 2
Fore
SplineSet
120 600 m 1
 120 720 l 1
 600 720 l 1
 600 600 l 1
 120 600 l 1
0 360 m 1
 0 600 l 1
 120 600 l 1
 120 360 l 1
 0 360 l 1
120 240 m 1
 120 360 l 1
 600 360 l 1
 600 600 l 1
 720 600 l 1
 720 0 l 1
 600 0 l 1
 600 240 l 1
 120 240 l 1
EndSplineSet
EndChar

StartChar: uniE00B
Encoding: 57355 57355 162
Width: 780
VWidth: 1024
Flags: W
HStem: 0 21G<0 120 600 720> 300 120<120 600> 600 120<120 600>
VStem: 0 120<0 300 420 600> 600 120<0 300 420 600>
LayerCount: 2
Fore
SplineSet
120 600 m 1
 120 720 l 1
 600 720 l 1
 600 600 l 1
 120 600 l 1
0 0 m 1
 0 600 l 1
 120 600 l 1
 120 420 l 1
 600 420 l 1
 600 600 l 1
 720 600 l 1
 720 0 l 1
 600 0 l 1
 600 300 l 1
 120 300 l 1
 120 0 l 1
 0 0 l 1
EndSplineSet
EndChar

StartChar: uniE00C
Encoding: 57356 57356 163
Width: 780
VWidth: 1024
Flags: W
HStem: 0 120<120 600> 120 180<600 720> 300 120<120 600> 420 180<600 720> 600 120<120 600>
VStem: 0 120<120 300 420 600> 600 120<120 300 420 600>
LayerCount: 2
Fore
SplineSet
600 420 m 1x26
 600 600 l 1
 720 600 l 1
 720 420 l 1x16
 600 420 l 1x26
600 120 m 1x86
 600 300 l 1
 720 300 l 1
 720 120 l 1x46
 600 120 l 1x86
0 0 m 1xa6
 0 720 l 1
 600 720 l 1xae
 600 600 l 1x16
 120 600 l 1
 120 420 l 1
 600 420 l 1x2e
 600 300 l 1x46
 120 300 l 1
 120 120 l 1
 600 120 l 1
 600 0 l 1
 0 0 l 1xa6
EndSplineSet
EndChar

StartChar: uniE00D
Encoding: 57357 57357 164
Width: 780
VWidth: 1024
Flags: W
HStem: 0 120<120 720> 600 120<120 720>
VStem: 0 120<120 600>
LayerCount: 2
Fore
SplineSet
120 600 m 1
 120 720 l 1
 720 720 l 1
 720 600 l 1
 120 600 l 1
0 120 m 1
 0 600 l 1
 120 600 l 1
 120 120 l 1
 0 120 l 1
120 0 m 1
 120 120 l 1
 720 120 l 1
 720 0 l 1
 120 0 l 1
EndSplineSet
EndChar

StartChar: uniE00E
Encoding: 57358 57358 165
Width: 780
VWidth: 1024
Flags: W
HStem: 0 120<120 720> 300 120<120 720> 600 120<120 720>
VStem: 0 120<120 300 420 600>
LayerCount: 2
Fore
SplineSet
0 120 m 1
 0 600 l 1
 120 600 l 1
 120 420 l 1
 720 420 l 1
 720 300 l 1
 120 300 l 1
 120 120 l 1
 0 120 l 1
120 600 m 1
 120 720 l 1
 720 720 l 1
 720 600 l 1
 120 600 l 1
120 0 m 1
 120 120 l 1
 720 120 l 1
 720 0 l 1
 120 0 l 1
EndSplineSet
EndChar

StartChar: uniE00F
Encoding: 57359 57359 166
Width: 780
VWidth: 1024
Flags: W
HStem: 0 21G<0 120> 300 120<120 720> 600 120<120 720>
VStem: 0 120<0 300 420 600>
LayerCount: 2
Fore
SplineSet
0 0 m 1
 0 600 l 1
 120 600 l 1
 120 420 l 1
 720 420 l 1
 720 300 l 1
 120 300 l 1
 120 0 l 1
 0 0 l 1
120 600 m 1
 120 720 l 1
 720 720 l 1
 720 600 l 1
 120 600 l 1
EndSplineSet
EndChar

StartChar: uniE010
Encoding: 57360 57360 167
Width: 600
VWidth: 1024
Flags: W
HStem: 0 120<120 420> 120 180<420 540> 300 120<180 420> 600 120<120 540>
VStem: 0 120<120 600> 420 120<120 300>
LayerCount: 2
Fore
SplineSet
180 300 m 1x3c
 180 420 l 1
 420 420 l 1x3c
 420 300 l 1x5c
 180 300 l 1x3c
420 120 m 1x9c
 420 300 l 1
 540 300 l 1
 540 120 l 1x5c
 420 120 l 1x9c
120 600 m 1
 120 720 l 1
 540 720 l 1
 540 600 l 1
 120 600 l 1
0 120 m 1
 0 600 l 1
 120 600 l 1
 120 120 l 1x9c
 0 120 l 1
120 0 m 1
 120 120 l 1
 420 120 l 1
 420 0 l 1
 120 0 l 1
EndSplineSet
EndChar

StartChar: uniE011
Encoding: 57361 57361 168
Width: 780
VWidth: 1024
Flags: W
HStem: 0 120<120 720> 700 20G<0 120>
VStem: 0 120<120 720>
LayerCount: 2
Fore
SplineSet
0 120 m 1
 0 720 l 1
 120 720 l 1
 120 120 l 1
 0 120 l 1
120 0 m 1
 120 120 l 1
 720 120 l 1
 720 0 l 1
 120 0 l 1
EndSplineSet
EndChar

StartChar: uniE012
Encoding: 57362 57362 169
Width: 780
VWidth: 1024
Flags: W
HStem: 0 120<120 600> 600 120<120 600>
VStem: 0 120<120 600> 600 120<120 600>
LayerCount: 2
Fore
SplineSet
600 120 m 1
 600 600 l 1
 720 600 l 1
 720 120 l 1
 600 120 l 1
120 600 m 1
 120 720 l 1
 600 720 l 1
 600 600 l 1
 120 600 l 1
0 120 m 1
 0 600 l 1
 120 600 l 1
 120 120 l 1
 0 120 l 1
120 0 m 1
 120 120 l 1
 600 120 l 1
 600 0 l 1
 120 0 l 1
EndSplineSet
EndChar

StartChar: uniE013
Encoding: 57363 57363 170
Width: 780
VWidth: 1024
Flags: W
HStem: 0 120<600 720> 300 120<120 480> 600 120<120 600>
VStem: 0 120<0 300 420 600> 480 120<120 300> 600 120<420 600>
LayerCount: 2
Fore
SplineSet
120 600 m 1xf4
 120 720 l 1
 600 720 l 1
 600 600 l 1
 120 600 l 1xf4
0 0 m 1
 0 600 l 1
 120 600 l 1
 120 420 l 1
 600 420 l 1
 600 600 l 1
 720 600 l 1
 720 300 l 9xf4
 600 300 l 25
 600 120 l 25xf8
 720 120 l 17
 720 0 l 1xf4
 480 0 l 1
 480 300 l 1xf8
 120 300 l 1
 120 0 l 1
 0 0 l 1
EndSplineSet
EndChar

StartChar: uniE014
Encoding: 57364 57364 171
Width: 780
VWidth: 1024
Flags: W
HStem: 0 120<0 600> 120 180<600 720> 300 120<120 600> 420 180<0 120> 600 120<120 720>
VStem: 0 120<420 600> 600 120<120 300>
LayerCount: 2
Fore
SplineSet
120 600 m 1x16
 120 720 l 1
 720 720 l 1
 720 600 l 1x0e
 120 600 l 1x16
0 420 m 1x16
 0 600 l 1
 120 600 l 1x16
 120 420 l 1x26
 0 420 l 1x16
120 300 m 1x26
 120 420 l 1
 600 420 l 1x26
 600 300 l 1x46
 120 300 l 1x26
600 120 m 1x86
 600 300 l 1
 720 300 l 1
 720 120 l 1x46
 600 120 l 1x86
0 0 m 1x86
 0 120 l 1
 600 120 l 1
 600 0 l 1
 0 0 l 1x86
EndSplineSet
EndChar

StartChar: uniE021
Encoding: 57377 57377 173
Width: 660
VWidth: 1024
Flags: W
HStem: 300 120<0 600>
LayerCount: 2
Fore
SplineSet
0 300 m 1
 0 420 l 1
 600 420 l 1
 600 300 l 1
 0 300 l 1
EndSplineSet
EndChar

StartChar: uniE022
Encoding: 57378 57378 174
Width: 780
VWidth: 1024
Flags: W
HStem: 0 120<0 600> 300 120<0 600> 600 120<0 600>
VStem: 600 120<120 300 420 600>
LayerCount: 2
Fore
SplineSet
0 0 m 1
 0 120 l 1
 600 120 l 1
 600 300 l 1
 0 300 l 1
 0 420 l 1
 600 420 l 1
 600 600 l 1
 0 600 l 1
 0 720 l 1
 720 720 l 1
 720 0 l 1
 0 0 l 1
EndSplineSet
EndChar
